<?xml version="1.0" encoding="utf-8"?>
<!-- Generator: Adobe Illustrator 23.0.3, SVG Export Plug-In . SVG Version: 6.00 Build 0)  -->
<svg version="1.1" id="Layer_1" xmlns="http://www.w3.org/2000/svg" xmlns:xlink="http://www.w3.org/1999/xlink" x="0px" y="0px"
	 viewBox="0 0 271.08 130.25" style="enable-background:new 0 0 271.08 130.25;" xml:space="preserve">
<style type="text/css">
	.st0{fill:#FDFAF2;}
</style>
<g>
	<g>
		<path d="M215.22,91.25c1.02,2.84,2.57,5.39,4.24,7.87c0.13,0.19,0.23,0.4,0.35,0.59c-1.06,0.11-2.03-0.3-3-0.62
			c-3.78-1.25-7.26-3.06-10.36-5.59c-2.51-2.04-4.71-4.35-6.5-7.06c-0.58-0.88-0.9-1.93-1.64-2.71c-2.37-5.14-3.75-10.55-4.1-16.2
			c-0.47-7.46,0.75-14.68,3.51-21.63c1.7-4.28,4.15-8.04,7.47-11.27c2.52-2.45,5.42-4.25,8.59-5.7c7.63-3.49,15.61-4.27,23.84-3.2
			c3.23,0.42,6.45,1.05,9.45,2.31c3.55,1.49,6.97,3.27,9.77,5.98c2.94,2.84,5.37,6.07,6.91,9.9c0.14,0.35,0.34,0.67,0.51,1.01
			c0.06,1.01,0.59,1.85,1.01,2.73c0.07,0.22,0.14,0.44,0.21,0.66c0,0.14-0.04,0.3,0,0.43c0.7,2.33,1.13,4.7,1.51,7.1
			c0.72,4.55,0.77,9.12,0.75,13.71c0,0.49-0.18,0.71-0.67,0.7c-0.41-0.01-0.83,0-1.24,0c-17.63,0-35.27,0.01-52.9-0.02
			c-0.86,0-1.08,0.25-1.13,1.09c-0.32,5.5,0.58,10.85,1.99,16.12C214.14,88.77,214.5,90.09,215.22,91.25z M231.14,56.88
			L231.14,56.88c5.86,0.01,11.72,0,17.58,0.03c0.79,0,1.03-0.21,0.95-1.01c-0.18-1.75-0.65-3.42-1.18-5.08
			c-0.75-2.38-2.02-4.46-3.73-6.27c-1.57-1.66-3.49-2.8-5.64-3.57c-2.63-0.94-5.3-1.68-8.12-1.56c-2.49,0.11-4.9,0.73-7.24,1.57
			c-3.02,1.09-5.56,2.8-7.44,5.46c-1.92,2.72-3,5.74-3.56,8.99c-0.23,1.33-0.2,1.43,1.15,1.43
			C219.66,56.89,225.4,56.88,231.14,56.88z"/>
		<path d="M166.38,99.34c-0.53-0.02-0.56-0.36-0.56-0.79c0-2.81-0.04-5.62-0.05-8.43c-0.01-6.95-0.05-13.9,0.02-20.85
			c0.13-13.99-0.02-27.98,0.06-41.97c0.01-1.4-0.13-1.18,1.17-1.18c5.21-0.01,10.41,0.02,15.62-0.03c0.87-0.01,1.26,0.18,1.14,1.09
			c-0.03,0.23,0.05,0.47,0.09,0.7c-0.23,0.29-0.13,0.62-0.13,0.94c0,23.15-0.01,46.29,0.01,69.44c0,0.74-0.14,1.04-0.96,1.03
			c-5.06-0.04-10.12-0.02-15.18-0.02C167.2,99.26,166.77,99.1,166.38,99.34z"/>
		<path d="M12.82,62.07c-0.54-1.67-0.55-3.39-0.55-5.12c0-3.86-0.03-7.72-0.05-11.58c0.31-1.29,0.1-1.58-1.12-1.58
			c-2.63,0-5.25-0.02-7.88,0.02c-0.48,0.01-0.97-0.32-1.43,0.03c-0.55,0.02-0.74-0.22-0.74-0.79c0.03-4.38,0.03-8.75,0.02-13.13
			c0-0.54,0.1-0.77,0.72-0.77c14.52,0.02,29.03,0.02,43.55,0.02c0.06,0,0.12,0.01,0.18,0.02c0.05,0.12,0.11,0.24,0.16,0.36
			c0.01,0.29,0.01,0.58,0.02,0.88c-0.02,0.09-0.05,0.17-0.05,0.26c0.02,3.99,0,7.99,0.07,11.98c0.02,0.93-0.3,1.14-1.17,1.13
			c-4.41-0.04-8.82,0.01-13.23-0.04c-0.86-0.01-1.09,0.21-1.09,1.07c0.02,10.57,0,21.13-0.01,31.7c0,1.14-0.02,1.18-1.16,0.91
			c-3.64-0.85-6.99-2.28-9.78-4.87c-1.68-1.56-3.16-3.24-4.31-5.24c-0.44-0.76-0.65-1.69-1.41-2.26c-0.04-0.04-0.05-0.09-0.05-0.15
			c0.12-0.48-0.05-0.88-0.31-1.26c-0.03-0.1-0.05-0.21-0.08-0.31c0.07-0.17,0.06-0.32-0.13-0.4c-0.02-0.1-0.04-0.2-0.07-0.29
			C13,62.44,13.03,62.24,12.82,62.07z"/>
		<path d="M61.12,51.96c-0.01-1.54-0.04-3.08-0.04-4.61c0-7.28,0.02-14.57,0-21.85c0-0.67,0.15-0.9,0.87-0.89
			c5.39,0.03,10.78,0.03,16.16,0c0.68,0,0.82,0.19,0.93,0.87c0.25,1.52,0.36,3.04,0.32,4.58c0,0.13-0.05,0.31,0.13,0.38
			c0.17,0.06,0.28-0.06,0.38-0.16c0.41-0.42,0.84-0.84,1.22-1.29c1.94-2.28,4.39-3.81,7.18-4.85c3.12-1.16,6.31-1.85,9.64-1.32
			c3.4,0.55,6.66,1.58,9.72,3.17c0.76,0.39,1.49,0.85,2.26,1.22c0.54,0.26,0.51,0.55,0.19,0.94c-0.16,0.52-0.3,1.05-0.5,1.55
			c-1.78,4.41-3.58,8.81-5.37,13.22c-0.35,0.85-0.44,0.91-1.14,0.27c-2.1-1.92-4.7-2.87-7.37-3.45c-4.62-0.99-9.27-0.72-13.85,0.45
			c-3.36,0.85-6.63,1.89-9.76,3.42c-2.46,1.2-4.63,2.8-6.8,4.43C63.77,49.2,62.48,50.61,61.12,51.96z"/>
		<path d="M118.45,53.01c-0.14-0.45-0.28-0.89-0.42-1.34c0.11-0.18,0.07-0.32-0.1-0.44c-0.56-2.1-0.83-4.24-0.83-6.41
			c0-5.95,0.01-11.9,0-17.85c0-0.68,0.15-0.9,0.88-0.89c5.21,0.03,10.42,0.02,15.63,0.01c1.34,0,1.34,0,1.44,1.33
			c-0.2,0.16-0.12,0.38-0.12,0.58c0,13.26,0.01,26.52,0.01,39.78c0,0.53,0.04,1.06,0.05,1.6c0.01,0.22,0.16,0.49-0.11,0.64
			c-0.22,0.12-0.37-0.11-0.55-0.19c-2.71-1.13-4.91-3.06-7.21-4.78c-2.6-1.95-4.48-4.6-6.23-7.32c-0.79-1.23-1.21-2.68-2.07-3.88
			c-0.05-0.14-0.11-0.29-0.16-0.43C118.71,53.22,118.62,53.09,118.45,53.01z"/>
		<path d="M61.59,75.51c0.65-3.52,2.07-6.74,4.21-9.56c2.51-3.31,5.39-6.3,8.97-8.54c1.3-0.81,2.58-1.65,3.96-2.32
			c0.25-0.12,0.62-0.5,0.58,0.21c-0.21,0.18-0.17,0.43-0.18,0.66c-0.06,1.6-0.17,3.19-0.17,4.79c-0.01,11.75,0,23.49,0,35.24
			c0,0.21-0.01,0.42,0,0.62c0.04,0.48-0.15,0.7-0.66,0.69c-5.44-0.02-10.89-0.03-16.33-0.02c-0.69,0-0.81-0.28-0.81-0.9
			c0.02-5.3,0.02-10.59,0.01-15.89c0-0.35-0.05-0.7-0.07-1.05c0.01-0.34,0.02-0.69,0.03-1.03c0.21-0.28,0.23-0.59,0.15-0.92
			c0.07-0.52,0.14-1.05,0.22-1.57C61.64,75.81,61.69,75.68,61.59,75.51z"/>
		<path d="M120.29,88.89c-2.26-4.6-2.92-9.53-3.13-14.82c0.94,1,1.75,1.79,2.56,2.57c3.79,3.65,8.37,5.81,13.32,7.43
			c5.32,1.74,10.73,2.13,16.24,1.63c1.62-0.15,3.23-0.43,4.76-0.99c1.2-0.44,2.33-1.07,3.65-1.69c-0.09,0.69-0.16,1.23-0.23,1.77
			c-0.06,0.1-0.15,0.19-0.17,0.3c-0.28,2.14-1.07,4.12-2,6.03c-1.8,3.69-4.42,6.65-8.32,8.19c-5.43,2.13-10.82,1.81-16.19-0.45
			c-4.11-1.73-7.07-4.67-9.55-8.24C120.86,90.07,120.85,89.33,120.29,88.89z"/>
		<path d="M15.97,97.82c-0.07-0.11-0.14-0.22-0.21-0.33c0.08-0.27-0.01-0.42-0.31-0.4c-2.29-3.68-3.12-7.74-3.18-12.01
			c-0.03-1.71,0-3.41,0-5.38c0.79,0.74,1.4,1.27,1.97,1.84c3.46,3.37,7.56,5.58,12.21,6.82c4.37,1.16,8.79,1.5,13.28,0.9
			c1.49-0.2,2.96-0.55,4.41-0.98c0.43-0.13,0.6-0.08,0.76,0.37c1.12,3.18,1.95,6.44,2.91,9.67c0.05,0.16,0,0.34-0.01,0.52
			c-0.31-0.1-0.4,0.19-0.57,0.33c-2.09,1.67-4.37,2.97-7.01,3.59c-4.24,1-8.54,1.17-12.85,0.71c-4.15-0.44-7.8-1.98-10.65-5.16
			C16.53,98.09,16.38,97.72,15.97,97.82z"/>
		<path d="M21.69,22.01c-2.57,0-5.15,0-7.72,0c-0.63,0-0.83-0.3-1.17-0.86c-0.97-1.56-0.43-3.18-0.49-4.75
			c-0.11-2.66-0.01-5.33-0.03-7.99c0-0.53,0.15-0.75,0.69-0.91c5.4-1.53,10.82-2.97,16.25-4.39c0.69-0.18,1.15-0.22,1.01,0.71
			C30.2,4,30.2,4.25,30.3,4.35c0.84,0.8,0.52,1.82,0.52,2.76c0.02,4.47,0.01,8.94,0.02,13.4c0,1.21-0.26,1.49-1.51,1.49
			C26.78,22.01,24.24,22.01,21.69,22.01z"/>
		<path d="M234.96,89.38c-0.16-0.57-0.79-0.87-0.84-1.52c2.03-0.25,4.05-0.61,6.01-1.33c3.24-1.19,5.66-3.33,7.47-6.2
			c0.35-0.56,0.56-0.64,1.13-0.28c2.23,1.39,4.57,2.62,6.75,4.08c2.28,1.53,4.64,2.89,6.98,4.32c0.39,0.24,0.85,0.44,0.31,0.97
			c-0.17,0-0.26,0.13-0.33,0.25c-0.88,1.43-2.11,2.53-3.37,3.6c-1.15,0.98-2.39,1.83-3.64,2.66c-1.06,0.71-2.11,1.62-3.48,1.65
			c-1.3,0.03-2.61,0-3.89-0.19c-5.36-0.79-9.74-3.24-12.82-7.81C235.17,89.5,235.05,89.45,234.96,89.38z"/>
		<path d="M232.67,126.98c0.3-0.07,0.28-0.37,0.36-0.57c0.81-2.12,1.61-4.24,2.39-6.38c0.25-0.68,0.66-0.98,1.39-0.96
			c2.45,0.05,2.27-0.35,2.27,2.19c0,2.63-0.04,5.27,0.02,7.9c0.02,0.83-0.35,0.92-1,0.92c-0.62,0-0.95-0.1-0.93-0.88
			c0.06-2.57,0.03-5.15,0.02-7.72c0-0.27,0.1-0.57-0.12-0.84c-0.34,0.18-0.32,0.5-0.41,0.76c-0.94,2.61-1.9,5.21-2.79,7.83
			c-0.22,0.65-0.54,0.88-1.21,0.86c-0.65-0.02-1.09-0.13-1.33-0.85c-0.84-2.61-1.76-5.19-2.64-7.79c-0.09-0.27-0.19-0.54-0.29-0.81
			c-0.41,0.13-0.25,0.42-0.25,0.62c-0.01,2.63-0.04,5.27,0.01,7.9c0.02,0.78-0.28,0.95-0.97,0.93c-0.63-0.02-0.95-0.11-0.94-0.88
			c0.05-3.02,0.04-6.04,0.01-9.06c-0.01-0.79,0.24-1.1,1.07-1.09c2.61,0.03,2.32-0.1,3.12,2.17c0.59,1.67,1.2,3.33,1.82,4.98
			C232.37,126.47,232.39,126.8,232.67,126.98z"/>
		<path d="M252.19,121.41c0.02,0.44,0.07,0.88,0.07,1.33c0.01,2.19-0.03,4.38,0.02,6.57c0.02,0.79-0.44,0.75-0.96,0.76
			c-0.53,0.01-0.87-0.05-0.86-0.76c0.04-3.11,0.03-6.21,0.01-9.32c-0.01-0.7,0.26-0.87,0.93-0.94c1.35-0.14,2.18,0.3,2.77,1.59
			c0.97,2.12,2.22,4.1,3.18,6.22c0.04,0.09,0.12,0.17,0.36,0.22c-0.02-0.38-0.05-0.77-0.05-1.15c-0.01-2.04,0.03-4.08-0.02-6.12
			c-0.02-0.76,0.38-0.78,0.93-0.79c0.58-0.01,0.91,0.06,0.89,0.8c-0.05,2.93-0.01,5.86-0.03,8.79c0,0.52,0.24,1.18-0.54,1.42
			c-0.86,0.27-1.93,0-2.32-0.65c-0.47-0.79-0.88-1.6-1.3-2.41c-0.92-1.78-1.95-3.5-2.74-5.36
			C252.49,121.51,252.46,121.38,252.19,121.41z"/>
		<path d="M204.24,124.91c-0.01-1.65,0.17-3.12,1.18-4.32c1.65-1.97,3.84-2.04,6.08-1.45c2.29,0.6,2.88,2.5,3.08,4.57
			c0.11,1.1-0.02,2.19-0.37,3.24c-0.62,1.84-1.89,2.93-3.84,3.21c-0.86,0.13-1.71,0.09-2.56-0.06c-2-0.37-3.23-1.77-3.49-3.92
			C204.27,125.7,204.26,125.23,204.24,124.91z M206.37,124.6c0.04,0.47,0.04,1.04,0.14,1.59c0.31,1.66,1.21,2.38,2.88,2.37
			c1.57-0.01,2.61-0.87,2.9-2.43c0.19-1.02,0.21-2.05,0.03-3.08c-0.26-1.56-1.17-2.48-2.58-2.57c-1.7-0.1-2.7,0.59-3.17,2.19
			C206.41,123.27,206.44,123.89,206.37,124.6z"/>
		<path d="M158.51,124.53c0-1.51,0.02-3.02-0.01-4.53c-0.01-0.66,0.16-0.98,0.9-0.94c1.44,0.09,2.9-0.13,4.34,0.15
			c2.14,0.41,3.5,1.85,3.79,4.01c0.11,0.85,0.11,1.72-0.02,2.57c-0.38,2.47-2.06,4-4.56,4.15c-1.18,0.07-2.37,0.02-3.55,0.07
			c-0.73,0.03-0.91-0.29-0.9-0.96C158.54,127.54,158.51,126.04,158.51,124.53z M160.55,124.55c0,0.77,0,1.53,0,2.3
			c0,1.84,0,1.84,1.84,1.62c1.62-0.19,2.56-0.99,2.93-2.5c0.48-1.97-0.06-4.06-1.27-4.85c-0.32-0.21-0.67-0.38-1.06-0.42
			c-0.61-0.06-1.23-0.07-1.85-0.13c-0.48-0.05-0.61,0.17-0.6,0.62C160.57,122.31,160.55,123.43,160.55,124.55z"/>
		<path d="M45.35,124.94c0.88,0.44,1.3,1.06,1.6,1.78c0.38,0.89,0.78,1.78,1.16,2.68c0.19,0.43,0.06,0.64-0.44,0.68
			c-1.41,0.12-1.48,0.09-2.01-1.22c-0.3-0.74-0.61-1.47-0.92-2.2c-0.38-0.91-1.06-1.27-2.04-1.22c-0.44,0.02-0.55,0.18-0.54,0.58
			c0.02,1.09-0.04,2.19,0.02,3.28c0.05,0.87-0.5,0.77-1.03,0.77c-0.54,0-1.01,0.05-1-0.8c0.05-3.1,0.03-6.21,0.01-9.31
			c0-0.63,0.15-0.92,0.84-0.89c1.27,0.05,2.54-0.03,3.81,0.05c1.52,0.09,2.61,1.02,2.81,2.26c0.25,1.59-0.33,2.65-1.82,3.35
			C45.69,124.77,45.59,124.82,45.35,124.94z M42.16,122.27c0,1.74,0,1.74,1.56,1.66c1.18-0.06,1.85-0.74,1.79-1.83
			c-0.06-1.17-0.75-1.56-2.57-1.58c-1.42-0.01-0.55,1.04-0.78,1.57C42.14,122.14,42.16,122.21,42.16,122.27z"/>
		<path d="M68.16,124.91c1.68,1.2,1.92,3.12,2.71,4.72c0.04,0.08,0.01,0.25-0.05,0.32c-0.31,0.37-2,0.06-2.2-0.4
			c-0.4-0.95-0.78-1.91-1.18-2.86c-0.17-0.41-0.4-0.78-0.81-1.02c-0.52-0.31-1.13-0.34-1.62-0.15c-0.33,0.13-0.13,0.69-0.13,1.06
			c-0.02,0.95-0.03,1.89,0,2.84c0.03,0.87-0.61,0.62-1.05,0.64s-0.97,0.15-0.96-0.64c0.02-3.19,0.02-6.38,0-9.58
			c0-0.57,0.19-0.79,0.77-0.77c1.06,0.03,2.13,0,3.19,0.01c1.93,0.02,3.11,0.76,3.43,2.16C70.64,122.89,70.06,123.93,68.16,124.91z
			 M64.87,122.28c0,0.41,0.01,0.83,0,1.24c0,0.23,0.03,0.42,0.32,0.41c0.62-0.02,1.26,0.03,1.85-0.09c0.87-0.18,1.36-1.12,1.16-2.01
			c-0.23-1.03-1.12-1.46-2.84-1.29c-0.96,0.09-0.3,0.88-0.48,1.31C64.82,121.97,64.87,122.14,64.87,122.28z"/>
		<path d="M37.48,123.24c-0.07,1.1,0.12,2.43-0.11,3.76c-0.27,1.55-1.16,2.54-2.67,2.99c-1.17,0.35-2.34,0.34-3.5,0.02
			c-1.57-0.44-2.45-1.51-2.59-3.12c-0.21-2.42-0.05-4.85-0.09-7.28c-0.01-0.84,0.69-0.6,1.11-0.61c0.39-0.01,0.98-0.14,0.96,0.66
			c-0.04,2.13-0.04,4.26,0,6.39c0.03,1.88,1.37,2.9,3.14,2.46c1.09-0.27,1.69-1.09,1.71-2.47c0.03-2.04,0-4.08,0.02-6.13
			c0-0.29-0.19-0.7,0.26-0.84c0.55-0.16,1.12-0.18,1.65,0.07c0.2,0.1,0.11,0.38,0.11,0.57C37.49,120.82,37.48,121.91,37.48,123.24z"
			/>
		<path d="M135.57,130.07c-0.75,0.23-1.03-0.29-1.26-1.03c-0.49-1.59-0.52-1.58-2.2-1.58c-0.09,0-0.18,0-0.27,0
			c-0.77,0.01-1.64-0.22-2.28,0.08c-0.66,0.31-0.55,1.34-0.87,2.02c-0.2,0.43-1.6,0.73-1.93,0.4c-0.16-0.16-0.06-0.33-0.01-0.49
			c1.16-3.34,2.31-6.68,3.47-10.02c0.1-0.29,0.31-0.39,0.6-0.43c0.56-0.08,1.12-0.05,1.68,0c0.41,0.04,0.62,0.21,0.75,0.6
			c1.1,3.2,2.21,6.41,3.35,9.59C137.01,130.29,136.28,130.05,135.57,130.07z M131.7,120.94c-0.07,0.01-0.14,0.01-0.21,0.02
			c-0.38,1.17-0.76,2.33-1.15,3.5c-0.5,1.51-0.5,1.51,1.09,1.51c1.91,0,1.91,0,1.32-1.81C132.4,123.08,132.05,122.01,131.7,120.94z"
			/>
		<path d="M85.27,118.97c1.04-0.15,1.52,0.29,1.84,1.29c0.94,2.95,2.01,5.86,3.02,8.79c0.11,0.32,0.45,0.72-0.04,1
			c-0.44,0.25-1.78-0.03-1.95-0.35c-0.04-0.08-0.05-0.17-0.08-0.25c-0.23-0.64-0.28-1.57-0.73-1.84c-0.55-0.33-1.43-0.13-2.16-0.13
			c-0.71,0-1.57-0.21-2.08,0.12c-0.45,0.3-0.51,1.2-0.74,1.84c-0.2,0.54-1.48,0.93-1.92,0.57c-0.21-0.17-0.12-0.39-0.05-0.57
			c1.15-3.32,2.31-6.63,3.47-9.94C84.1,118.73,84.79,119.1,85.27,118.97z M85.3,120.99c-0.08-0.01-0.15-0.02-0.23-0.03
			c-0.51,1.52-1.01,3.05-1.52,4.57c-0.1,0.31,0.01,0.44,0.33,0.44c0.88-0.01,1.77,0,2.65,0c0.26,0,0.38-0.09,0.28-0.38
			C86.31,124.05,85.81,122.52,85.3,120.99z"/>
		<path d="M8.16,123.15c0-1.12,0.05-2.25-0.02-3.37c-0.05-0.86,0.53-0.81,1.02-0.8c0.48,0.01,1.07-0.1,1.04,0.78
			c-0.06,2.04-0.04,4.08-0.01,6.12c0.03,2.03,1.33,3.09,3.17,2.62c1.1-0.28,1.71-1.16,1.72-2.57c0.02-2.04,0.05-4.08-0.02-6.12
			c-0.03-0.92,0.54-0.83,1.07-0.84c0.54-0.01,0.99,0.04,0.97,0.85c-0.07,2.07-0.01,4.14-0.03,6.21c-0.02,2.39-1.26,3.78-3.63,4.14
			c-0.84,0.13-1.66,0.07-2.47-0.12c-1.65-0.38-2.69-1.61-2.78-3.35c-0.07-1.18-0.01-2.37-0.01-3.55
			C8.18,123.15,8.17,123.15,8.16,123.15z"/>
		<path d="M216.78,124.68c0-1.54,0.03-3.07-0.01-4.61c-0.02-0.79,0.28-1.05,1.04-1.01c0.97,0.05,1.95-0.01,2.92,0.02
			c2.08,0.06,3.39,1.21,3.49,3.02c0.11,2.12-1.07,3.63-3.12,3.93c-0.49,0.07-1,0.14-1.5,0.11c-0.6-0.04-0.84,0.11-0.8,0.76
			c0.06,0.82-0.01,1.65,0.02,2.48c0.03,0.84-0.57,0.67-1.04,0.67c-0.46,0-1.04,0.16-1.02-0.68
			C216.81,127.81,216.78,126.24,216.78,124.68z M218.82,122.55c0,0.3,0,0.59,0,0.89c0,1.21,0,1.19,1.24,1.18
			c0.78,0,1.4-0.29,1.75-0.98c0.4-0.78,0.41-1.59-0.08-2.36c-0.39-0.61-1.72-1.03-2.58-0.73c-0.68,0.24-0.19,0.92-0.32,1.38
			C218.78,122.12,218.82,122.34,218.82,122.55z"/>
		<path d="M182.47,128.1c0.88-2.84,1.72-5.57,2.57-8.29c0.1-0.32,0.1-0.72,0.58-0.78c0.5-0.07,1.09-0.23,1.45,0.12
			c0.29,0.29-0.07,0.77-0.2,1.15c-0.99,2.97-2.02,5.92-2.99,8.89c-0.22,0.69-0.56,0.91-1.26,0.9c-1.67-0.03-1.67,0-2.19-1.56
			c-0.97-2.88-1.92-5.77-2.92-8.64c-0.23-0.66-0.09-0.87,0.61-0.92c0.88-0.06,1.39,0.13,1.66,1.09c0.71,2.5,1.55,4.96,2.33,7.43
			C182.16,127.68,182.2,127.89,182.47,128.1z"/>
		<path d="M169.7,124.51c0-1.54,0.02-3.08-0.01-4.61c-0.01-0.6,0.19-0.85,0.82-0.83c1.63,0.03,3.25,0.04,4.88,0
			c0.6-0.01,0.68,0.26,0.67,0.75c-0.01,0.46-0.03,0.8-0.65,0.78c-1-0.04-2.01,0.01-3.02-0.02c-0.49-0.02-0.66,0.12-0.67,0.64
			c-0.07,2.34-0.09,2.34,2.22,2.34c0.24,0,0.48,0.03,0.71-0.01c0.67-0.1,0.81,0.28,0.81,0.83s-0.23,0.78-0.82,0.74
			c-0.77-0.05-1.54,0.01-2.31-0.02c-0.44-0.02-0.65,0.09-0.61,0.58c0.07,0.91-0.36,2.08,0.16,2.66c0.49,0.55,1.67,0.12,2.55,0.17
			c0.27,0.02,0.53,0.02,0.8,0c0.55-0.05,0.87,0.05,0.86,0.74c-0.01,0.65-0.23,0.79-0.83,0.78c-1.57-0.03-3.14-0.03-4.7,0
			c-0.65,0.01-0.89-0.23-0.88-0.88C169.73,127.59,169.7,126.05,169.7,124.51z"/>
		<path d="M53.4,119.08c0.83,0,1.66,0.03,2.48-0.01c0.57-0.03,0.62,0.27,0.61,0.71c-0.01,0.43,0.05,0.83-0.61,0.81
			c-1.03-0.04-2.07,0.01-3.11-0.02c-0.46-0.01-0.6,0.14-0.62,0.6c-0.12,2.37-0.13,2.37,2.19,2.37c0.24,0,0.48,0.03,0.71-0.01
			c0.63-0.09,0.84,0.21,0.85,0.79c0.01,0.63-0.28,0.85-0.87,0.77c-0.15-0.02-0.3-0.01-0.44,0c-0.79,0.06-2.02-0.34-2.26,0.15
			c-0.39,0.79-0.13,1.89-0.15,2.86c-0.01,0.48,0.35,0.38,0.63,0.38c1.04,0,2.07,0.03,3.11-0.01c0.66-0.03,0.6,0.37,0.61,0.8
			c0.01,0.43-0.02,0.73-0.6,0.72c-1.69-0.03-3.37-0.02-5.06-0.01c-0.53,0-0.74-0.22-0.73-0.75c0.01-3.14,0.01-6.27,0-9.41
			c0-0.56,0.2-0.8,0.78-0.78C51.75,119.1,52.58,119.08,53.4,119.08z"/>
		<path d="M188.89,124.51c0-1.54,0.01-3.08-0.01-4.61c-0.01-0.6,0.19-0.85,0.82-0.83c1.63,0.03,3.25,0.04,4.88,0
			c0.6-0.01,0.68,0.25,0.67,0.74c-0.01,0.46-0.02,0.8-0.65,0.78c-1-0.04-2.01,0.01-3.02-0.02c-0.49-0.02-0.66,0.12-0.67,0.64
			c-0.07,2.34-0.09,2.34,2.22,2.34c0.24,0,0.48,0.03,0.71-0.01c0.67-0.1,0.81,0.28,0.81,0.83s-0.23,0.78-0.81,0.74
			c-0.77-0.05-1.54,0.01-2.31-0.02c-0.44-0.02-0.65,0.08-0.61,0.58c0.07,0.91-0.36,2.08,0.16,2.66c0.49,0.55,1.67,0.12,2.55,0.17
			c0.27,0.02,0.53,0.02,0.8,0c0.55-0.05,0.87,0.05,0.86,0.74c-0.01,0.64-0.23,0.79-0.83,0.78c-1.57-0.04-3.14-0.03-4.7,0
			c-0.65,0.01-0.9-0.22-0.88-0.88C188.91,127.59,188.89,126.05,188.89,124.51z"/>
		<path d="M115.25,118.85c0.63-0.02,1.23,0.12,1.82,0.34c0.66,0.25,0.99,1.01,0.72,1.66c-0.16,0.4-0.41,0.19-0.63,0.06
			c-0.58-0.32-1.19-0.54-1.85-0.54c-0.67,0-1.33,0.12-1.58,0.87c-0.26,0.8,0.08,1.39,0.8,1.75c0.68,0.35,1.38,0.65,2.07,0.99
			c1.22,0.61,1.91,1.54,1.84,2.96c-0.08,1.45-0.8,2.45-2.14,2.96c-1.46,0.55-2.9,0.42-4.3-0.23c-0.53-0.25-0.86-1.3-0.56-1.75
			c0.2-0.3,0.41-0.08,0.6,0.03c0.75,0.45,1.57,0.68,2.44,0.68c1.01,0,1.65-0.43,1.82-1.21c0.21-0.91-0.37-1.37-1.04-1.74
			c-0.59-0.33-1.23-0.56-1.82-0.89c-1.55-0.85-2.13-2.03-1.79-3.57c0.29-1.34,1.39-2.18,3.08-2.33
			C114.89,118.87,115.07,118.86,115.25,118.85z"/>
		<path d="M72.85,124.42c0-1.51,0.02-3.02-0.01-4.53c-0.01-0.61,0.18-0.84,0.81-0.83c1.63,0.03,3.26,0.04,4.88,0
			c0.62-0.02,0.65,0.3,0.65,0.76c0,0.47-0.04,0.79-0.66,0.76c-1-0.05-2.01,0.01-3.02-0.02c-0.49-0.01-0.66,0.14-0.67,0.65
			c-0.07,2.33-0.09,2.32,2.25,2.32c0.24,0,0.48,0.02,0.71,0c0.58-0.07,0.79,0.18,0.79,0.75c0.01,0.6-0.18,0.86-0.82,0.82
			c-0.74-0.05-1.48,0.02-2.22-0.02c-0.52-0.03-0.76,0.1-0.72,0.68c0.05,0.68,0.04,1.36,0,2.04c-0.03,0.54,0.13,0.73,0.69,0.71
			c1-0.04,2.01,0.02,3.02-0.02c0.58-0.02,0.7,0.24,0.69,0.74c-0.01,0.46-0.03,0.8-0.65,0.78c-1.66-0.03-3.31-0.02-4.97-0.01
			c-0.56,0.01-0.79-0.21-0.78-0.79C72.87,127.62,72.85,126.02,72.85,124.42z"/>
		<path d="M103.59,124.51c0-1.54,0.02-3.08-0.01-4.62c-0.01-0.6,0.18-0.85,0.81-0.83c1.63,0.03,3.26,0.04,4.88,0
			c0.62-0.02,0.66,0.29,0.65,0.76c0,0.46-0.04,0.79-0.66,0.77c-1-0.05-2.01,0.01-3.02-0.02c-0.49-0.01-0.66,0.14-0.67,0.65
			c-0.08,2.33-0.09,2.33,2.25,2.33c0.24,0,0.48,0.02,0.71,0c0.58-0.07,0.79,0.17,0.8,0.74c0.01,0.6-0.18,0.86-0.82,0.82
			c-0.74-0.05-1.48,0.02-2.22-0.02c-0.52-0.03-0.76,0.1-0.72,0.68c0.05,0.68,0.04,1.36,0,2.04c-0.03,0.54,0.13,0.74,0.69,0.71
			c0.97-0.05,1.95,0.02,2.93-0.02c0.57-0.02,0.8,0.14,0.79,0.74c-0.01,0.55-0.12,0.8-0.74,0.79c-1.6-0.04-3.2-0.03-4.79,0
			c-0.65,0.01-0.89-0.22-0.87-0.88C103.61,127.59,103.59,126.05,103.59,124.51z"/>
		<path d="M241.8,124.53c0-1.51,0.03-3.02-0.01-4.53c-0.02-0.67,0.14-0.97,0.89-0.94c1.57,0.05,3.14,0.04,4.7,0
			c0.59-0.02,0.78,0.16,0.77,0.74c-0.01,0.53-0.1,0.82-0.74,0.79c-0.97-0.05-1.95,0-2.93-0.02c-0.47-0.01-0.68,0.1-0.7,0.63
			c-0.09,2.35-0.11,2.34,2.23,2.35c0.24,0,0.48,0.03,0.71-0.01c0.65-0.09,0.81,0.23,0.81,0.82s-0.24,0.77-0.8,0.75
			c-0.77-0.04-1.54,0.02-2.31-0.02c-0.52-0.03-0.71,0.17-0.63,0.66c0,0.03,0,0.06,0,0.09c0.05,0.85-0.36,1.94,0.15,2.49
			c0.52,0.55,1.62,0.12,2.47,0.17c0.29,0.02,0.59,0.03,0.89,0c0.63-0.07,0.9,0.11,0.9,0.81c0,0.74-0.4,0.71-0.91,0.71
			c-1.51-0.01-3.02-0.03-4.53,0.01c-0.71,0.02-1.01-0.19-0.98-0.96C241.84,127.55,241.8,126.04,241.8,124.53z"/>
		<path d="M145.87,124.42c0-1.51,0.02-3.02-0.01-4.53c-0.01-0.61,0.18-0.84,0.81-0.83c1.63,0.03,3.25,0.04,4.88,0
			c0.62-0.02,0.66,0.3,0.65,0.76c0,0.47-0.04,0.79-0.66,0.76c-1-0.05-2.01,0.01-3.02-0.02c-0.49-0.01-0.66,0.14-0.67,0.65
			c-0.08,2.33-0.09,2.33,2.25,2.33c0.24,0,0.48,0.02,0.71,0c0.58-0.07,0.79,0.18,0.79,0.75c0.01,0.6-0.18,0.86-0.82,0.82
			c-0.77-0.05-1.54,0.01-2.31-0.02c-0.44-0.01-0.65,0.09-0.62,0.59c0.04,0.74,0.03,1.48,0,2.22c-0.02,0.46,0.13,0.63,0.6,0.61
			c1.03-0.03,2.07,0.02,3.11-0.02c0.58-0.02,0.7,0.24,0.69,0.74c-0.01,0.46-0.03,0.79-0.65,0.78c-1.66-0.03-3.31-0.02-4.97-0.01
			c-0.56,0.01-0.79-0.21-0.78-0.79C145.89,127.62,145.87,126.02,145.87,124.42z"/>
		<path d="M0.02,124.56c0-1.57,0.02-3.14-0.01-4.71c-0.01-0.57,0.18-0.79,0.77-0.78c1.54,0.03,3.08,0.03,4.62,0
			c0.62-0.01,0.66,0.31,0.65,0.78c-0.01,0.48-0.01,0.89-0.68,0.86c-0.92-0.04-1.84,0.01-2.75-0.02c-0.46-0.02-0.63,0.13-0.6,0.6
			c0.04,0.68,0.04,1.36,0,2.04c-0.03,0.49,0.18,0.6,0.62,0.58c0.86-0.03,1.72,0.02,2.58-0.02c0.67-0.03,0.6,0.41,0.61,0.82
			c0,0.41,0.06,0.84-0.61,0.81c-0.83-0.04-1.66,0.02-2.49-0.02c-0.53-0.03-0.73,0.13-0.71,0.69c0.04,1.06-0.02,2.13,0.02,3.2
			c0.03,0.85-0.56,0.67-1.03,0.68c-0.48,0.01-1.02,0.13-0.99-0.71C0.05,127.76,0.02,126.16,0.02,124.56z"/>
		<path d="M124.36,125.35c0,1.3-0.05,2.6,0.02,3.9c0.04,0.83-0.44,0.83-1,0.81c-0.54-0.02-1.13,0.13-1.12-0.79
			c0.04-2.54-0.03-5.08,0.04-7.62c0.02-0.85-0.26-1.07-1.03-0.97c-0.41,0.05-0.83-0.04-1.24,0.02c-0.68,0.09-0.88-0.22-0.89-0.84
			c-0.02-0.67,0.27-0.81,0.9-0.8c2.25,0.04,4.49,0.04,6.74,0c0.65-0.01,0.74,0.31,0.73,0.79c-0.02,0.45-0.01,0.9-0.7,0.85
			c-0.62-0.05-1.24,0.02-1.86-0.02c-0.48-0.03-0.6,0.15-0.59,0.6C124.38,122.64,124.36,123.99,124.36,125.35z"/>
		<path d="M23.83,125.33c0,1.3-0.05,2.6,0.02,3.9c0.05,0.9-0.48,0.83-1.06,0.84c-0.61,0.01-1.06-0.02-1.04-0.88
			c0.06-2.54-0.01-5.08,0.04-7.62c0.02-0.77-0.22-0.98-0.94-0.89c-0.47,0.06-0.95-0.03-1.42,0.02c-0.67,0.08-0.79-0.27-0.81-0.83
			c-0.02-0.59,0.15-0.82,0.79-0.81c2.24,0.04,4.49,0.04,6.74,0c0.61-0.01,0.85,0.17,0.84,0.78c-0.01,0.63-0.22,0.92-0.9,0.85
			c-0.5-0.05-1.01,0.03-1.5-0.02c-0.6-0.06-0.82,0.11-0.79,0.76C23.87,122.73,23.83,124.03,23.83,125.33z"/>
		<path d="M139.09,125.25c0-1.27-0.04-2.54,0.02-3.81c0.03-0.65-0.2-0.81-0.8-0.76c-0.56,0.05-1.12-0.02-1.68,0.02
			c-0.68,0.05-0.69-0.38-0.7-0.85c-0.01-0.44,0.02-0.79,0.65-0.78c2.36,0.03,4.73,0.03,7.09,0c0.57-0.01,0.64,0.28,0.61,0.71
			c-0.02,0.43,0.1,0.94-0.62,0.91c-0.62-0.02-1.24,0.03-1.86-0.01c-0.55-0.04-0.7,0.14-0.7,0.69c0.03,2.6-0.02,5.2,0.03,7.8
			c0.02,0.82-0.35,0.91-1,0.91c-0.66,0-1.12-0.04-1.07-0.93C139.15,127.85,139.09,126.55,139.09,125.25z"/>
		<path d="M265.24,119.08c1.15,0,2.31,0.03,3.46-0.01c0.61-0.02,0.67,0.29,0.66,0.76c-0.01,0.46,0.02,0.94-0.67,0.86
			c-0.06-0.01-0.12-0.01-0.18,0c-0.75,0.07-1.76-0.34-2.19,0.18c-0.37,0.44-0.12,1.41-0.13,2.14c-0.01,2.1-0.04,4.2,0.01,6.29
			c0.02,0.87-0.52,0.76-1.04,0.77c-0.54,0.01-1.03,0.06-1.02-0.79c0.05-2.54-0.02-5.08,0.04-7.62c0.02-0.86-0.26-1.07-1.03-0.98
			c-0.41,0.05-0.83-0.03-1.24,0.02c-0.63,0.07-0.92-0.14-0.93-0.81c-0.01-0.67,0.25-0.85,0.89-0.82
			C262.99,119.11,264.12,119.08,265.24,119.08z"/>
		<path d="M92.04,124.46c0-1.57,0.05-3.14-0.02-4.7c-0.04-0.89,0.55-0.77,1.03-0.78c0.51-0.01,1.03-0.04,1.01,0.81
			c-0.06,2.6,0,5.2-0.03,7.81c-0.01,0.61,0.15,0.84,0.78,0.8c0.82-0.05,1.66,0.02,2.48-0.02c0.71-0.04,0.64,0.44,0.65,0.88
			c0.02,0.45-0.04,0.78-0.66,0.77c-1.48-0.04-2.96-0.03-4.44-0.01c-0.62,0.01-0.83-0.23-0.82-0.84
			C92.06,127.6,92.04,126.03,92.04,124.46z"/>
		<path d="M197.57,124.44c0-1.57,0.04-3.14-0.02-4.7c-0.03-0.89,0.58-0.76,1.05-0.76c0.45,0,1-0.09,0.99,0.74
			c-0.05,2.63,0,5.26-0.03,7.89c-0.01,0.64,0.2,0.81,0.8,0.78c0.8-0.05,1.6,0.03,2.39-0.02c0.65-0.04,0.73,0.31,0.72,0.81
			c-0.01,0.46,0.01,0.86-0.68,0.84c-1.48-0.05-2.96-0.03-4.43-0.01c-0.63,0.01-0.81-0.27-0.8-0.86
			C197.59,127.58,197.57,126.01,197.57,124.44z"/>
		<path d="M219.94,99.74c-0.07,0.08-0.15,0.16-0.16-0.03C219.84,99.69,219.9,99.7,219.94,99.74z"/>
	</g>
	<g>
		<path class="st0" d="M216.94,88.24c1.02,2.84,2.57,5.39,4.24,7.87c0.13,0.19,0.23,0.4,0.35,0.59c-1.06,0.11-2.03-0.3-3-0.62
			c-3.78-1.25-7.26-3.06-10.36-5.59c-2.51-2.04-4.71-4.35-6.5-7.06c-0.58-0.88-0.9-1.93-1.64-2.71c-2.38-5.14-3.75-10.55-4.1-16.2
			c-0.47-7.46,0.75-14.68,3.51-21.63c1.7-4.28,4.15-8.04,7.47-11.27c2.52-2.45,5.42-4.25,8.59-5.7c7.63-3.49,15.61-4.27,23.84-3.2
			c3.23,0.42,6.45,1.05,9.45,2.31c3.55,1.49,6.97,3.27,9.77,5.98c2.94,2.84,5.37,6.07,6.91,9.9c0.14,0.35,0.34,0.67,0.51,1.01
			c0.06,1.01,0.59,1.85,1.01,2.73c0.07,0.22,0.14,0.44,0.21,0.66c0,0.14-0.04,0.3,0,0.43c0.7,2.33,1.13,4.7,1.51,7.1
			c0.72,4.55,0.77,9.12,0.75,13.71c0,0.49-0.18,0.71-0.67,0.7c-0.41-0.01-0.83,0-1.24,0c-17.63,0-35.27,0.01-52.9-0.02
			c-0.86,0-1.08,0.25-1.13,1.09c-0.32,5.5,0.58,10.85,1.99,16.12C215.86,85.75,216.22,87.07,216.94,88.24z M232.87,53.87
			L232.87,53.87c5.86,0.01,11.72,0,17.58,0.03c0.79,0,1.03-0.21,0.95-1.01c-0.18-1.75-0.65-3.42-1.18-5.08
			c-0.75-2.38-2.02-4.46-3.73-6.27c-1.57-1.66-3.49-2.8-5.64-3.57c-2.63-0.94-5.3-1.68-8.12-1.56c-2.49,0.11-4.9,0.73-7.24,1.57
			c-3.02,1.09-5.56,2.8-7.44,5.46c-1.92,2.72-3,5.74-3.56,8.99c-0.23,1.33-0.2,1.43,1.15,1.43
			C221.38,53.87,227.12,53.87,232.87,53.87z"/>
		<path class="st0" d="M168.11,96.32c-0.53-0.02-0.56-0.36-0.56-0.79c0-2.81-0.04-5.62-0.05-8.43c-0.01-6.95-0.05-13.9,0.02-20.85
			c0.13-13.99-0.02-27.98,0.06-41.97c0.01-1.4-0.13-1.18,1.17-1.18c5.21-0.01,10.41,0.02,15.62-0.03c0.87-0.01,1.26,0.18,1.14,1.09
			c-0.03,0.23,0.05,0.47,0.09,0.7c-0.23,0.29-0.13,0.62-0.13,0.94c0,23.15-0.01,46.29,0.01,69.44c0,0.74-0.14,1.04-0.96,1.03
			c-5.06-0.04-10.12-0.02-15.18-0.02C168.92,96.25,168.5,96.09,168.11,96.32z"/>
		<path class="st0" d="M14.54,59.05c-0.54-1.67-0.55-3.39-0.55-5.12c0-3.86-0.03-7.72-0.05-11.58c0.31-1.29,0.1-1.58-1.12-1.58
			c-2.63,0-5.25-0.02-7.88,0.02c-0.48,0.01-0.97-0.32-1.43,0.03c-0.55,0.02-0.74-0.22-0.74-0.79C2.8,35.65,2.8,31.28,2.79,26.9
			c0-0.54,0.1-0.77,0.72-0.77c14.52,0.02,29.03,0.02,43.55,0.02c0.06,0,0.12,0.01,0.18,0.02c0.05,0.12,0.11,0.24,0.16,0.36
			c0.01,0.29,0.01,0.58,0.02,0.88c-0.02,0.09-0.05,0.17-0.05,0.26c0.02,3.99,0,7.99,0.07,11.98c0.02,0.93-0.3,1.14-1.17,1.13
			c-4.41-0.04-8.82,0.01-13.23-0.04c-0.86-0.01-1.09,0.21-1.09,1.07c0.02,10.57,0,21.13-0.01,31.7c0,1.14-0.02,1.18-1.16,0.91
			c-3.64-0.85-6.99-2.28-9.78-4.87c-1.68-1.56-3.16-3.24-4.31-5.24c-0.44-0.76-0.65-1.69-1.41-2.26c-0.04-0.04-0.05-0.09-0.05-0.15
			c0.12-0.48-0.05-0.88-0.31-1.26c-0.03-0.1-0.05-0.21-0.08-0.31c0.07-0.17,0.06-0.32-0.13-0.4c-0.02-0.1-0.04-0.2-0.07-0.29
			C14.73,59.43,14.76,59.22,14.54,59.05z"/>
		<path class="st0" d="M62.84,48.94c-0.01-1.54-0.04-3.08-0.04-4.61c0-7.28,0.02-14.57,0-21.85c0-0.67,0.15-0.9,0.87-0.89
			c5.39,0.03,10.78,0.03,16.16,0c0.68,0,0.82,0.19,0.93,0.87c0.25,1.52,0.36,3.04,0.32,4.58c0,0.13-0.05,0.31,0.13,0.38
			c0.17,0.06,0.28-0.06,0.38-0.16c0.41-0.42,0.84-0.84,1.22-1.29c1.94-2.28,4.39-3.81,7.18-4.85c3.12-1.16,6.31-1.85,9.64-1.32
			c3.4,0.55,6.66,1.58,9.72,3.17c0.76,0.39,1.49,0.85,2.26,1.22c0.54,0.26,0.51,0.55,0.19,0.94c-0.16,0.52-0.3,1.05-0.5,1.55
			c-1.78,4.41-3.58,8.81-5.37,13.22c-0.35,0.85-0.44,0.91-1.14,0.27c-2.1-1.92-4.7-2.87-7.37-3.45c-4.62-0.99-9.27-0.72-13.85,0.45
			c-3.36,0.85-6.63,1.89-9.76,3.42c-2.46,1.2-4.63,2.8-6.8,4.43C65.49,46.18,64.2,47.59,62.84,48.94z"/>
		<path class="st0" d="M120.17,49.99c-0.14-0.45-0.28-0.89-0.42-1.34c0.11-0.18,0.07-0.32-0.1-0.44c-0.56-2.1-0.83-4.24-0.83-6.41
			c0-5.95,0.01-11.9,0-17.85c0-0.68,0.15-0.9,0.88-0.89c5.21,0.03,10.42,0.02,15.63,0.01c1.34,0,1.34,0,1.44,1.33
			c-0.2,0.16-0.12,0.38-0.12,0.58c0,13.26,0.01,26.52,0.01,39.78c0,0.53,0.04,1.06,0.05,1.6c0.01,0.22,0.16,0.49-0.12,0.64
			c-0.22,0.12-0.37-0.11-0.55-0.19c-2.71-1.13-4.91-3.06-7.21-4.78c-2.6-1.95-4.48-4.6-6.23-7.32c-0.79-1.23-1.21-2.68-2.07-3.88
			c-0.05-0.14-0.11-0.29-0.16-0.43C120.43,50.21,120.35,50.08,120.17,49.99z"/>
		<path class="st0" d="M63.31,72.5c0.65-3.52,2.07-6.74,4.21-9.56c2.51-3.31,5.39-6.3,8.97-8.54c1.3-0.81,2.58-1.65,3.96-2.32
			c0.25-0.12,0.62-0.5,0.58,0.21c-0.21,0.18-0.17,0.43-0.18,0.66c-0.06,1.6-0.17,3.19-0.17,4.79c-0.01,11.75,0,23.49,0,35.24
			c0,0.21-0.01,0.42,0,0.62c0.04,0.48-0.15,0.7-0.66,0.69c-5.44-0.02-10.89-0.03-16.33-0.02c-0.69,0-0.81-0.28-0.81-0.9
			c0.02-5.3,0.02-10.59,0.01-15.89c0-0.35-0.05-0.7-0.07-1.05c0.01-0.34,0.02-0.69,0.03-1.03c0.21-0.28,0.23-0.59,0.15-0.92
			c0.07-0.52,0.14-1.05,0.22-1.57C63.36,72.8,63.41,72.66,63.31,72.5z"/>
		<path class="st0" d="M122.02,85.88c-2.26-4.6-2.92-9.53-3.13-14.82c0.94,1,1.75,1.79,2.56,2.57c3.79,3.65,8.37,5.81,13.32,7.43
			c5.32,1.74,10.73,2.13,16.24,1.63c1.62-0.15,3.23-0.43,4.76-0.99c1.2-0.44,2.33-1.07,3.65-1.69c-0.09,0.69-0.16,1.23-0.23,1.77
			c-0.06,0.1-0.15,0.19-0.17,0.3c-0.28,2.14-1.07,4.12-2,6.03c-1.8,3.69-4.42,6.65-8.32,8.19c-5.43,2.13-10.82,1.81-16.19-0.45
			c-4.11-1.73-7.07-4.67-9.55-8.24C122.58,87.06,122.58,86.32,122.02,85.88z"/>
		<path class="st0" d="M17.69,94.8c-0.07-0.11-0.14-0.22-0.21-0.33c0.08-0.27-0.01-0.42-0.31-0.4c-2.29-3.68-3.12-7.74-3.18-12.01
			c-0.03-1.71,0-3.41,0-5.38c0.79,0.74,1.4,1.27,1.97,1.84c3.46,3.37,7.56,5.58,12.21,6.82c4.37,1.16,8.79,1.5,13.28,0.9
			c1.49-0.2,2.96-0.55,4.41-0.98c0.43-0.13,0.6-0.08,0.76,0.37c1.12,3.18,1.95,6.44,2.91,9.67c0.05,0.16,0,0.34-0.01,0.52
			c-0.31-0.1-0.4,0.19-0.57,0.33c-2.09,1.67-4.37,2.97-7.01,3.59c-4.24,1-8.54,1.17-12.85,0.71c-4.15-0.44-7.8-1.98-10.65-5.16
			C18.26,95.08,18.1,94.71,17.69,94.8z"/>
		<path class="st0" d="M23.42,19c-2.57,0-5.15,0-7.72,0c-0.63,0-0.83-0.3-1.17-0.86c-0.97-1.56-0.43-3.18-0.49-4.75
			C13.92,10.73,14.02,8.06,14,5.4c0-0.53,0.15-0.75,0.69-0.91c5.4-1.53,10.82-2.97,16.25-4.39c0.69-0.18,1.15-0.22,1.01,0.71
			c-0.03,0.17-0.03,0.42,0.07,0.52c0.84,0.8,0.52,1.82,0.52,2.76c0.02,4.47,0.01,8.94,0.02,13.4c0,1.21-0.26,1.49-1.51,1.49
			C28.51,19,25.96,19,23.42,19z"/>
		<path class="st0" d="M236.68,86.37c-0.16-0.57-0.79-0.87-0.84-1.52c2.03-0.25,4.05-0.61,6.01-1.33c3.24-1.19,5.66-3.33,7.47-6.2
			c0.35-0.56,0.56-0.64,1.13-0.28c2.23,1.39,4.57,2.62,6.75,4.08c2.28,1.53,4.64,2.89,6.98,4.32c0.39,0.24,0.85,0.44,0.31,0.97
			c-0.17,0-0.26,0.13-0.33,0.25c-0.88,1.43-2.11,2.53-3.37,3.6c-1.15,0.98-2.39,1.83-3.64,2.66c-1.06,0.71-2.11,1.62-3.48,1.65
			c-1.3,0.03-2.61,0-3.89-0.19c-5.36-0.79-9.74-3.24-12.82-7.81C236.89,86.49,236.77,86.44,236.68,86.37z"/>
		<path class="st0" d="M234.39,123.96c0.3-0.07,0.28-0.37,0.36-0.57c0.81-2.12,1.61-4.24,2.39-6.38c0.25-0.68,0.66-0.98,1.39-0.96
			c2.45,0.05,2.27-0.35,2.27,2.19c0,2.63-0.04,5.27,0.02,7.9c0.02,0.83-0.35,0.92-1,0.92c-0.62,0-0.95-0.1-0.93-0.88
			c0.06-2.57,0.03-5.15,0.02-7.72c0-0.27,0.1-0.57-0.12-0.84c-0.34,0.18-0.32,0.5-0.41,0.76c-0.94,2.61-1.9,5.21-2.79,7.83
			c-0.22,0.65-0.54,0.88-1.21,0.86c-0.65-0.02-1.09-0.13-1.33-0.85c-0.84-2.61-1.76-5.19-2.64-7.79c-0.09-0.27-0.19-0.54-0.29-0.81
			c-0.41,0.13-0.25,0.42-0.25,0.62c-0.01,2.63-0.04,5.27,0.01,7.9c0.02,0.78-0.28,0.95-0.97,0.93c-0.63-0.02-0.95-0.11-0.94-0.88
			c0.05-3.02,0.04-6.04,0.01-9.06c-0.01-0.79,0.24-1.1,1.07-1.09c2.61,0.03,2.32-0.1,3.12,2.17c0.59,1.67,1.2,3.33,1.82,4.98
			C234.1,123.46,234.12,123.78,234.39,123.96z"/>
		<path class="st0" d="M253.92,118.4c0.02,0.44,0.07,0.88,0.07,1.33c0.01,2.19-0.03,4.38,0.02,6.57c0.02,0.79-0.44,0.75-0.96,0.76
			c-0.53,0.01-0.87-0.05-0.86-0.76c0.04-3.11,0.03-6.21,0.01-9.32c-0.01-0.7,0.26-0.87,0.93-0.94c1.35-0.14,2.18,0.3,2.77,1.59
			c0.97,2.12,2.22,4.1,3.18,6.22c0.04,0.09,0.12,0.17,0.36,0.22c-0.02-0.38-0.05-0.77-0.05-1.15c-0.01-2.04,0.03-4.08-0.02-6.12
			c-0.02-0.76,0.38-0.78,0.93-0.79c0.58-0.01,0.91,0.06,0.89,0.8c-0.05,2.93-0.01,5.86-0.03,8.79c0,0.52,0.24,1.18-0.54,1.42
			c-0.86,0.27-1.93,0-2.32-0.65c-0.47-0.79-0.88-1.6-1.3-2.41c-0.92-1.78-1.95-3.5-2.74-5.36
			C254.22,118.5,254.18,118.36,253.92,118.4z"/>
		<path class="st0" d="M205.96,121.89c-0.01-1.65,0.17-3.12,1.18-4.32c1.65-1.97,3.84-2.04,6.08-1.45c2.29,0.6,2.88,2.5,3.08,4.57
			c0.11,1.1-0.02,2.19-0.37,3.24c-0.62,1.84-1.89,2.93-3.84,3.21c-0.86,0.13-1.71,0.09-2.56-0.06c-2-0.37-3.23-1.77-3.49-3.92
			C205.99,122.69,205.98,122.21,205.96,121.89z M208.09,121.58c0.04,0.47,0.04,1.04,0.14,1.59c0.31,1.66,1.21,2.38,2.88,2.37
			c1.57-0.01,2.61-0.87,2.9-2.43c0.19-1.02,0.21-2.05,0.03-3.08c-0.26-1.56-1.17-2.48-2.58-2.57c-1.7-0.1-2.7,0.59-3.17,2.19
			C208.13,120.26,208.16,120.88,208.09,121.58z"/>
		<path class="st0" d="M160.24,121.51c0-1.51,0.02-3.02-0.01-4.53c-0.01-0.66,0.16-0.98,0.9-0.94c1.44,0.09,2.9-0.13,4.34,0.15
			c2.14,0.41,3.5,1.85,3.79,4.01c0.11,0.85,0.11,1.72-0.02,2.57c-0.38,2.47-2.06,4-4.56,4.15c-1.18,0.07-2.37,0.02-3.55,0.07
			c-0.73,0.03-0.91-0.29-0.9-0.96C160.26,124.53,160.24,123.02,160.24,121.51z M162.27,121.53c0,0.77,0,1.53,0,2.3
			c0,1.84,0,1.84,1.84,1.62c1.62-0.19,2.56-0.99,2.93-2.5c0.48-1.97-0.06-4.06-1.27-4.85c-0.32-0.21-0.67-0.38-1.06-0.42
			c-0.61-0.06-1.23-0.07-1.85-0.13c-0.48-0.05-0.61,0.17-0.6,0.62C162.29,119.29,162.27,120.41,162.27,121.53z"/>
		<path class="st0" d="M47.07,121.93c0.88,0.44,1.3,1.06,1.6,1.78c0.38,0.89,0.78,1.78,1.16,2.68c0.19,0.43,0.06,0.64-0.44,0.68
			c-1.41,0.12-1.48,0.09-2.01-1.22c-0.3-0.74-0.61-1.47-0.92-2.2c-0.38-0.91-1.06-1.27-2.04-1.22c-0.44,0.02-0.55,0.18-0.54,0.58
			c0.02,1.09-0.04,2.19,0.02,3.28c0.05,0.87-0.5,0.77-1.03,0.77c-0.54,0-1.01,0.05-1-0.8c0.05-3.1,0.03-6.21,0.01-9.31
			c0-0.63,0.15-0.92,0.84-0.89c1.27,0.05,2.54-0.03,3.81,0.05c1.52,0.09,2.61,1.02,2.81,2.26c0.25,1.59-0.33,2.65-1.82,3.35
			C47.41,121.76,47.31,121.81,47.07,121.93z M43.88,119.25c0,1.74,0,1.74,1.56,1.66c1.18-0.06,1.85-0.74,1.79-1.83
			c-0.06-1.17-0.75-1.56-2.57-1.58c-1.42-0.01-0.55,1.04-0.78,1.57C43.87,119.13,43.88,119.2,43.88,119.25z"/>
		<path class="st0" d="M69.88,121.89c1.68,1.2,1.92,3.12,2.71,4.72c0.04,0.08,0.01,0.25-0.05,0.32c-0.31,0.37-2,0.06-2.2-0.4
			c-0.4-0.95-0.78-1.91-1.18-2.86c-0.17-0.41-0.4-0.78-0.81-1.02c-0.52-0.31-1.13-0.34-1.62-0.15c-0.33,0.13-0.13,0.69-0.13,1.06
			c-0.02,0.95-0.03,1.89,0,2.84c0.03,0.87-0.61,0.62-1.05,0.64s-0.97,0.15-0.96-0.64c0.02-3.19,0.02-6.38,0-9.58
			c0-0.57,0.19-0.79,0.77-0.77c1.06,0.03,2.13,0,3.19,0.01c1.93,0.02,3.11,0.76,3.43,2.16C72.36,119.88,71.78,120.92,69.88,121.89z
			 M66.59,119.27c0,0.41,0.01,0.83,0,1.24c0,0.23,0.03,0.42,0.32,0.41c0.62-0.02,1.26,0.03,1.85-0.09c0.87-0.18,1.36-1.12,1.16-2.01
			c-0.23-1.03-1.12-1.46-2.84-1.29c-0.96,0.09-0.3,0.88-0.48,1.31C66.55,118.95,66.59,119.12,66.59,119.27z"/>
		<path class="st0" d="M39.21,120.22c-0.07,1.1,0.12,2.43-0.11,3.76c-0.27,1.55-1.16,2.54-2.67,2.99c-1.17,0.35-2.34,0.34-3.5,0.02
			c-1.57-0.44-2.45-1.51-2.59-3.12c-0.21-2.42-0.05-4.85-0.09-7.28c-0.01-0.84,0.69-0.6,1.11-0.61c0.39-0.01,0.98-0.14,0.96,0.66
			c-0.04,2.13-0.04,4.26,0,6.39c0.03,1.88,1.37,2.9,3.14,2.46c1.09-0.27,1.69-1.09,1.71-2.47c0.03-2.04,0-4.08,0.02-6.13
			c0-0.29-0.19-0.7,0.26-0.84c0.55-0.16,1.12-0.18,1.65,0.07c0.2,0.1,0.11,0.38,0.11,0.57C39.21,117.8,39.21,118.9,39.21,120.22z"/>
		<path class="st0" d="M137.3,127.06c-0.75,0.23-1.03-0.29-1.26-1.03c-0.49-1.59-0.52-1.58-2.2-1.58c-0.09,0-0.18,0-0.27,0
			c-0.77,0.01-1.64-0.22-2.28,0.08c-0.66,0.31-0.55,1.34-0.87,2.02c-0.2,0.43-1.6,0.73-1.93,0.4c-0.16-0.16-0.06-0.33-0.01-0.49
			c1.16-3.34,2.31-6.68,3.47-10.02c0.1-0.29,0.31-0.39,0.6-0.43c0.56-0.08,1.12-0.05,1.68,0c0.41,0.04,0.62,0.21,0.75,0.6
			c1.1,3.2,2.21,6.41,3.35,9.59C138.73,127.27,138,127.04,137.3,127.06z M133.42,117.92c-0.07,0.01-0.14,0.01-0.21,0.02
			c-0.38,1.17-0.76,2.33-1.15,3.5c-0.5,1.51-0.5,1.51,1.09,1.51c1.91,0,1.91,0,1.32-1.81C134.12,120.07,133.77,118.99,133.42,117.92
			z"/>
		<path class="st0" d="M86.99,115.95c1.04-0.15,1.52,0.29,1.84,1.29c0.94,2.95,2.01,5.86,3.02,8.79c0.11,0.32,0.45,0.72-0.04,1
			c-0.44,0.25-1.78-0.03-1.95-0.35c-0.04-0.08-0.05-0.17-0.08-0.25c-0.23-0.64-0.28-1.57-0.73-1.84c-0.55-0.33-1.43-0.13-2.16-0.13
			c-0.71,0-1.57-0.21-2.08,0.12c-0.45,0.3-0.51,1.2-0.74,1.84c-0.2,0.54-1.48,0.93-1.92,0.57c-0.21-0.17-0.12-0.39-0.05-0.57
			c1.15-3.32,2.31-6.63,3.47-9.94C85.83,115.72,86.52,116.09,86.99,115.95z M87.03,117.97c-0.08-0.01-0.15-0.02-0.23-0.03
			c-0.51,1.52-1.01,3.05-1.52,4.57c-0.1,0.31,0.01,0.44,0.33,0.44c0.88-0.01,1.77,0,2.65,0c0.26,0,0.38-0.09,0.28-0.38
			C88.03,121.04,87.53,119.5,87.03,117.97z"/>
		<path class="st0" d="M9.88,120.14c0-1.12,0.05-2.25-0.02-3.37c-0.05-0.86,0.53-0.81,1.02-0.8c0.48,0.01,1.07-0.1,1.04,0.78
			c-0.06,2.04-0.04,4.08-0.01,6.12c0.03,2.03,1.33,3.09,3.17,2.62c1.1-0.28,1.71-1.16,1.72-2.57c0.02-2.04,0.05-4.08-0.02-6.12
			c-0.03-0.92,0.54-0.83,1.07-0.84c0.54-0.01,0.99,0.04,0.97,0.85c-0.07,2.07-0.01,4.14-0.03,6.21c-0.02,2.39-1.26,3.78-3.63,4.14
			c-0.84,0.13-1.66,0.07-2.47-0.12c-1.65-0.38-2.69-1.61-2.78-3.35c-0.07-1.18-0.01-2.37-0.01-3.55
			C9.9,120.14,9.89,120.14,9.88,120.14z"/>
		<path class="st0" d="M218.51,121.66c0-1.54,0.03-3.07-0.01-4.61c-0.02-0.79,0.28-1.05,1.04-1.01c0.97,0.05,1.95-0.01,2.92,0.02
			c2.08,0.06,3.39,1.21,3.49,3.02c0.11,2.12-1.07,3.63-3.12,3.93c-0.49,0.07-1,0.14-1.5,0.11c-0.6-0.04-0.84,0.11-0.8,0.76
			c0.06,0.82-0.01,1.65,0.02,2.48c0.03,0.84-0.57,0.67-1.04,0.67c-0.46,0-1.04,0.16-1.02-0.68
			C218.53,124.8,218.51,123.23,218.51,121.66z M220.55,119.53c0,0.3,0,0.59,0,0.89c0,1.21,0,1.19,1.24,1.18
			c0.78,0,1.4-0.29,1.75-0.98c0.4-0.78,0.41-1.59-0.08-2.36c-0.39-0.61-1.72-1.03-2.58-0.73c-0.68,0.24-0.19,0.92-0.32,1.38
			C220.5,119.11,220.55,119.33,220.55,119.53z"/>
		<path class="st0" d="M184.19,125.09c0.88-2.84,1.72-5.57,2.57-8.29c0.1-0.32,0.1-0.72,0.58-0.78c0.5-0.07,1.09-0.23,1.45,0.12
			c0.29,0.29-0.07,0.77-0.2,1.15c-0.99,2.97-2.02,5.92-2.99,8.89c-0.22,0.69-0.56,0.91-1.26,0.9c-1.67-0.03-1.67,0-2.19-1.56
			c-0.97-2.88-1.92-5.77-2.92-8.64c-0.23-0.66-0.09-0.87,0.61-0.92c0.88-0.06,1.39,0.13,1.66,1.09c0.71,2.5,1.55,4.96,2.33,7.43
			C183.89,124.67,183.92,124.87,184.19,125.09z"/>
		<path class="st0" d="M171.43,121.5c0-1.54,0.02-3.08-0.01-4.61c-0.01-0.6,0.19-0.85,0.82-0.83c1.63,0.03,3.25,0.04,4.88,0
			c0.6-0.01,0.68,0.26,0.67,0.75c-0.01,0.46-0.03,0.8-0.65,0.78c-1-0.04-2.01,0.01-3.02-0.02c-0.49-0.02-0.66,0.12-0.67,0.64
			c-0.07,2.34-0.09,2.34,2.22,2.34c0.24,0,0.48,0.03,0.71-0.01c0.67-0.1,0.81,0.28,0.81,0.83s-0.23,0.78-0.82,0.74
			c-0.77-0.05-1.54,0.01-2.31-0.02c-0.44-0.02-0.65,0.09-0.61,0.58c0.07,0.91-0.36,2.08,0.16,2.66c0.49,0.55,1.67,0.12,2.55,0.17
			c0.27,0.02,0.53,0.02,0.8,0c0.55-0.05,0.87,0.05,0.86,0.74c-0.01,0.65-0.23,0.79-0.83,0.78c-1.57-0.03-3.14-0.03-4.7,0
			c-0.65,0.01-0.89-0.23-0.88-0.88C171.45,124.57,171.43,123.04,171.43,121.5z"/>
		<path class="st0" d="M55.13,116.06c0.83,0,1.66,0.03,2.48-0.01c0.57-0.03,0.62,0.27,0.61,0.71c-0.01,0.43,0.05,0.83-0.61,0.81
			c-1.03-0.04-2.07,0.01-3.11-0.02c-0.46-0.01-0.6,0.14-0.62,0.6c-0.12,2.37-0.13,2.37,2.19,2.37c0.24,0,0.48,0.03,0.71-0.01
			c0.63-0.09,0.84,0.21,0.85,0.79c0.01,0.63-0.28,0.85-0.87,0.77c-0.15-0.02-0.3-0.01-0.44,0c-0.79,0.06-2.02-0.34-2.26,0.15
			c-0.39,0.79-0.13,1.89-0.15,2.86c-0.01,0.48,0.35,0.38,0.63,0.38c1.04,0,2.07,0.03,3.11-0.01c0.66-0.03,0.6,0.37,0.61,0.8
			c0.01,0.43-0.02,0.73-0.6,0.72c-1.69-0.03-3.37-0.02-5.06-0.01c-0.53,0-0.74-0.22-0.73-0.75c0.01-3.14,0.01-6.27,0-9.41
			c0-0.56,0.2-0.8,0.78-0.78C53.47,116.09,54.3,116.06,55.13,116.06z"/>
		<path class="st0" d="M190.61,121.5c0-1.54,0.01-3.08-0.01-4.61c-0.01-0.6,0.19-0.85,0.82-0.83c1.63,0.03,3.25,0.04,4.88,0
			c0.6-0.01,0.68,0.25,0.67,0.74c-0.01,0.46-0.02,0.8-0.65,0.78c-1-0.04-2.01,0.01-3.02-0.02c-0.49-0.02-0.66,0.12-0.67,0.64
			c-0.07,2.34-0.09,2.34,2.22,2.34c0.24,0,0.48,0.03,0.71-0.01c0.67-0.1,0.81,0.28,0.81,0.83s-0.23,0.78-0.81,0.74
			c-0.77-0.05-1.54,0.01-2.31-0.02c-0.44-0.02-0.65,0.08-0.61,0.58c0.07,0.91-0.36,2.08,0.16,2.66c0.49,0.55,1.67,0.12,2.55,0.17
			c0.27,0.02,0.53,0.02,0.8,0c0.55-0.05,0.87,0.05,0.86,0.74c-0.01,0.64-0.23,0.79-0.83,0.78c-1.57-0.04-3.14-0.03-4.7,0
			c-0.65,0.01-0.9-0.22-0.88-0.88C190.64,124.58,190.61,123.04,190.61,121.5z"/>
		<path class="st0" d="M116.97,115.83c0.63-0.02,1.23,0.12,1.82,0.34c0.66,0.25,0.99,1.01,0.72,1.66c-0.16,0.4-0.41,0.19-0.63,0.06
			c-0.58-0.32-1.19-0.54-1.85-0.54c-0.67,0-1.33,0.12-1.58,0.87c-0.26,0.8,0.08,1.39,0.8,1.75c0.68,0.35,1.38,0.65,2.07,0.99
			c1.22,0.61,1.91,1.54,1.84,2.96c-0.08,1.45-0.8,2.45-2.14,2.96c-1.46,0.55-2.9,0.42-4.3-0.23c-0.53-0.25-0.86-1.3-0.56-1.75
			c0.2-0.3,0.41-0.08,0.6,0.03c0.75,0.45,1.57,0.68,2.44,0.68c1.01,0,1.65-0.43,1.82-1.21c0.21-0.91-0.37-1.37-1.04-1.74
			c-0.59-0.33-1.23-0.56-1.82-0.89c-1.55-0.85-2.13-2.03-1.79-3.57c0.29-1.34,1.39-2.18,3.08-2.33
			C116.62,115.85,116.79,115.85,116.97,115.83z"/>
		<path class="st0" d="M74.57,121.41c0-1.51,0.02-3.02-0.01-4.53c-0.01-0.61,0.18-0.84,0.81-0.83c1.63,0.03,3.26,0.04,4.88,0
			c0.62-0.02,0.65,0.3,0.65,0.76c0,0.47-0.04,0.79-0.66,0.76c-1-0.05-2.01,0.01-3.02-0.02c-0.49-0.01-0.66,0.14-0.67,0.65
			c-0.07,2.33-0.09,2.32,2.25,2.32c0.24,0,0.48,0.02,0.71,0c0.58-0.07,0.79,0.18,0.79,0.75c0.01,0.6-0.18,0.86-0.82,0.82
			c-0.74-0.05-1.48,0.02-2.22-0.02c-0.52-0.03-0.76,0.1-0.72,0.68c0.05,0.68,0.04,1.36,0,2.04c-0.03,0.54,0.13,0.73,0.69,0.71
			c1-0.04,2.01,0.02,3.02-0.02c0.58-0.02,0.7,0.24,0.69,0.74c-0.01,0.46-0.03,0.8-0.65,0.78c-1.66-0.03-3.31-0.02-4.97-0.01
			c-0.56,0.01-0.79-0.21-0.78-0.79C74.59,124.6,74.57,123.01,74.57,121.41z"/>
		<path class="st0" d="M105.31,121.5c0-1.54,0.02-3.08-0.01-4.62c-0.01-0.6,0.18-0.85,0.81-0.83c1.63,0.03,3.26,0.04,4.88,0
			c0.62-0.02,0.66,0.29,0.65,0.76c0,0.46-0.04,0.79-0.66,0.77c-1-0.05-2.01,0.01-3.02-0.02c-0.49-0.01-0.66,0.14-0.67,0.65
			c-0.08,2.33-0.09,2.33,2.25,2.33c0.24,0,0.48,0.02,0.71,0c0.58-0.07,0.79,0.17,0.8,0.74c0.01,0.6-0.18,0.86-0.82,0.82
			c-0.74-0.05-1.48,0.02-2.22-0.02c-0.52-0.03-0.76,0.1-0.72,0.68c0.05,0.68,0.04,1.36,0,2.04c-0.03,0.54,0.13,0.74,0.69,0.71
			c0.97-0.05,1.95,0.02,2.93-0.02c0.57-0.02,0.8,0.14,0.79,0.74c-0.01,0.55-0.12,0.8-0.74,0.79c-1.6-0.04-3.2-0.03-4.79,0
			c-0.65,0.01-0.89-0.22-0.87-0.88C105.34,124.58,105.31,123.04,105.31,121.5z"/>
		<path class="st0" d="M243.52,121.52c0-1.51,0.03-3.02-0.01-4.53c-0.02-0.67,0.14-0.97,0.89-0.94c1.57,0.05,3.14,0.04,4.7,0
			c0.59-0.02,0.78,0.16,0.77,0.74c-0.01,0.53-0.1,0.82-0.74,0.79c-0.97-0.05-1.95,0-2.93-0.02c-0.47-0.01-0.68,0.1-0.7,0.63
			c-0.09,2.35-0.11,2.34,2.23,2.35c0.24,0,0.48,0.03,0.71-0.01c0.65-0.09,0.81,0.23,0.81,0.82s-0.24,0.77-0.8,0.75
			c-0.77-0.04-1.54,0.02-2.31-0.02c-0.52-0.03-0.71,0.17-0.63,0.66c0,0.03,0,0.06,0,0.09c0.05,0.85-0.36,1.94,0.15,2.49
			c0.52,0.55,1.62,0.12,2.47,0.17c0.29,0.02,0.59,0.03,0.89,0c0.63-0.07,0.9,0.11,0.9,0.81c0,0.74-0.4,0.71-0.91,0.71
			c-1.51-0.01-3.02-0.03-4.53,0.01c-0.71,0.02-1.01-0.19-0.98-0.96C243.56,124.53,243.53,123.02,243.52,121.52z"/>
		<path class="st0" d="M147.59,121.41c0-1.51,0.02-3.02-0.01-4.53c-0.01-0.61,0.18-0.84,0.81-0.83c1.63,0.03,3.25,0.04,4.88,0
			c0.62-0.02,0.66,0.3,0.65,0.76c0,0.47-0.04,0.79-0.66,0.76c-1-0.05-2.01,0.01-3.02-0.02c-0.49-0.01-0.66,0.14-0.67,0.65
			c-0.08,2.33-0.09,2.33,2.25,2.33c0.24,0,0.48,0.02,0.71,0c0.58-0.07,0.79,0.18,0.79,0.75c0.01,0.6-0.18,0.86-0.82,0.82
			c-0.77-0.05-1.54,0.01-2.31-0.02c-0.44-0.01-0.65,0.09-0.62,0.59c0.04,0.74,0.03,1.48,0,2.22c-0.02,0.46,0.13,0.63,0.6,0.61
			c1.03-0.03,2.07,0.02,3.11-0.02c0.58-0.02,0.7,0.24,0.69,0.74c-0.01,0.46-0.03,0.79-0.65,0.78c-1.66-0.03-3.31-0.02-4.97-0.01
			c-0.56,0.01-0.79-0.21-0.78-0.79C147.61,124.6,147.59,123.01,147.59,121.41z"/>
		<path class="st0" d="M1.74,121.54c0-1.57,0.02-3.14-0.01-4.71c-0.01-0.57,0.18-0.79,0.77-0.78c1.54,0.03,3.08,0.03,4.62,0
			c0.62-0.01,0.66,0.31,0.65,0.78c-0.01,0.48-0.01,0.89-0.68,0.86c-0.92-0.04-1.84,0.01-2.75-0.02c-0.46-0.02-0.63,0.13-0.6,0.6
			c0.04,0.68,0.04,1.36,0,2.04c-0.03,0.49,0.18,0.6,0.62,0.58c0.86-0.03,1.72,0.02,2.58-0.02c0.67-0.03,0.6,0.41,0.61,0.82
			c0,0.41,0.06,0.84-0.61,0.81c-0.83-0.04-1.66,0.02-2.49-0.02c-0.53-0.03-0.73,0.13-0.71,0.69c0.04,1.06-0.02,2.13,0.02,3.2
			c0.03,0.85-0.56,0.67-1.03,0.68c-0.48,0.01-1.02,0.13-0.99-0.71C1.77,124.74,1.74,123.14,1.74,121.54z"/>
		<path class="st0" d="M126.08,122.34c0,1.3-0.05,2.6,0.02,3.9c0.04,0.83-0.44,0.83-1,0.81c-0.54-0.02-1.13,0.13-1.12-0.79
			c0.04-2.54-0.03-5.08,0.04-7.62c0.02-0.85-0.26-1.07-1.03-0.97c-0.41,0.05-0.83-0.04-1.24,0.02c-0.68,0.09-0.88-0.22-0.89-0.84
			c-0.02-0.67,0.27-0.81,0.9-0.8c2.25,0.04,4.49,0.04,6.74,0c0.65-0.01,0.74,0.31,0.73,0.79c-0.02,0.45-0.01,0.9-0.7,0.85
			c-0.62-0.05-1.24,0.02-1.86-0.02c-0.48-0.03-0.6,0.15-0.59,0.6C126.1,119.62,126.08,120.98,126.08,122.34z"/>
		<path class="st0" d="M25.55,122.32c0,1.3-0.05,2.6,0.02,3.9c0.05,0.9-0.48,0.83-1.06,0.84c-0.61,0.01-1.06-0.02-1.04-0.88
			c0.06-2.54-0.01-5.08,0.04-7.62c0.02-0.77-0.22-0.98-0.94-0.89c-0.47,0.06-0.95-0.03-1.42,0.02c-0.67,0.08-0.79-0.27-0.81-0.83
			c-0.02-0.59,0.15-0.82,0.79-0.81c2.24,0.04,4.49,0.04,6.74,0c0.61-0.01,0.85,0.17,0.84,0.78c-0.01,0.63-0.22,0.92-0.9,0.85
			c-0.5-0.05-1.01,0.03-1.5-0.02c-0.6-0.06-0.82,0.11-0.79,0.76C25.59,119.72,25.55,121.02,25.55,122.32z"/>
		<path class="st0" d="M140.81,122.23c0-1.27-0.04-2.54,0.02-3.81c0.03-0.65-0.2-0.81-0.8-0.76c-0.56,0.05-1.12-0.02-1.68,0.02
			c-0.68,0.05-0.69-0.38-0.7-0.85c-0.01-0.44,0.02-0.79,0.65-0.78c2.36,0.03,4.73,0.03,7.09,0c0.57-0.01,0.64,0.28,0.61,0.71
			c-0.02,0.43,0.1,0.94-0.62,0.91c-0.62-0.02-1.24,0.03-1.86-0.01c-0.55-0.04-0.7,0.14-0.7,0.69c0.03,2.6-0.02,5.2,0.03,7.8
			c0.02,0.82-0.35,0.91-1,0.91c-0.66,0-1.12-0.04-1.07-0.93C140.87,124.84,140.81,123.53,140.81,122.23z"/>
		<path class="st0" d="M266.96,116.06c1.15,0,2.31,0.03,3.46-0.01c0.61-0.02,0.67,0.29,0.66,0.76c-0.01,0.46,0.02,0.94-0.67,0.86
			c-0.06-0.01-0.12-0.01-0.18,0c-0.75,0.07-1.76-0.34-2.19,0.18c-0.37,0.44-0.12,1.41-0.13,2.14c-0.01,2.1-0.04,4.2,0.01,6.29
			c0.02,0.87-0.52,0.76-1.04,0.77c-0.54,0.01-1.03,0.06-1.02-0.79c0.05-2.54-0.02-5.08,0.04-7.62c0.02-0.86-0.26-1.07-1.03-0.98
			c-0.41,0.05-0.83-0.03-1.24,0.02c-0.63,0.07-0.92-0.14-0.93-0.81c-0.01-0.67,0.25-0.85,0.89-0.82
			C264.71,116.1,265.84,116.06,266.96,116.06z"/>
		<path class="st0" d="M93.76,121.45c0-1.57,0.05-3.14-0.02-4.7c-0.04-0.89,0.55-0.77,1.03-0.78c0.51-0.01,1.03-0.04,1.01,0.81
			c-0.06,2.6,0,5.2-0.03,7.81c-0.01,0.61,0.15,0.84,0.78,0.8c0.82-0.05,1.66,0.02,2.48-0.02c0.71-0.04,0.64,0.44,0.65,0.88
			c0.02,0.45-0.04,0.78-0.66,0.77c-1.48-0.04-2.96-0.03-4.44-0.01c-0.62,0.01-0.83-0.23-0.82-0.84
			C93.78,124.58,93.76,123.01,93.76,121.45z"/>
		<path class="st0" d="M199.29,121.43c0-1.57,0.04-3.14-0.02-4.7c-0.03-0.89,0.58-0.76,1.05-0.76c0.45,0,1-0.09,0.99,0.74
			c-0.05,2.63,0,5.26-0.03,7.89c-0.01,0.64,0.2,0.81,0.8,0.78c0.8-0.05,1.6,0.03,2.39-0.02c0.65-0.04,0.73,0.31,0.72,0.81
			c-0.01,0.46,0.01,0.86-0.68,0.84c-1.48-0.05-2.96-0.03-4.43-0.01c-0.63,0.01-0.81-0.27-0.8-0.86
			C199.31,124.56,199.29,123,199.29,121.43z"/>
		<path class="st0" d="M221.67,96.73c-0.07,0.08-0.15,0.16-0.16-0.03C221.56,96.67,221.62,96.68,221.67,96.73z"/>
	</g>
</g>
</svg>
