<svg xmlns="http://www.w3.org/2000/svg" xml:space="preserve" id="Layer_1" x="0" y="0" version="1.1" viewBox="0 0 271.08 130.25"><style>.st0{fill:#fdfaf2}</style><path d="M215.22 91.25c1.02 2.84 2.57 5.39 4.24 7.87.13.19.23.4.35.59-1.06.11-2.03-.3-3-.62-3.78-1.25-7.26-3.06-10.36-5.59-2.51-2.04-4.71-4.35-6.5-7.06-.58-.88-.9-1.93-1.64-2.71-2.37-5.14-3.75-10.55-4.1-16.2-.47-7.46.75-14.68 3.51-21.63 1.7-4.28 4.15-8.04 7.47-11.27 2.52-2.45 5.42-4.25 8.59-5.7 7.63-3.49 15.61-4.27 23.84-3.2 3.23.42 6.45 1.05 9.45 2.31 3.55 1.49 6.97 3.27 9.77 5.98 2.94 2.84 5.37 6.07 6.91 9.9.14.35.34.67.51 1.01.06 1.01.59 1.85 1.01 2.73l.21.66c0 .14-.04.3 0 .43.7 2.33 1.13 4.7 1.51 7.1.72 4.55.77 9.12.75 13.71 0 .49-.18.71-.67.7-.41-.01-.83 0-1.24 0-17.63 0-35.27.01-52.9-.02-.86 0-1.08.25-1.13 1.09-.32 5.5.58 10.85 1.99 16.12.35 1.32.71 2.64 1.43 3.8m15.92-34.37c5.86.01 11.72 0 17.58.03.79 0 1.03-.21.95-1.01-.18-1.75-.65-3.42-1.18-5.08-.75-2.38-2.02-4.46-3.73-6.27-1.57-1.66-3.49-2.8-5.64-3.57-2.63-.94-5.3-1.68-8.12-1.56-2.49.11-4.9.73-7.24 1.57-3.02 1.09-5.56 2.8-7.44 5.46-1.92 2.72-3 5.74-3.56 8.99-.23 1.33-.2 1.43 1.15 1.43 5.75.02 11.49.01 17.23.01M166.38 99.34c-.53-.02-.56-.36-.56-.79 0-2.81-.04-5.62-.05-8.43-.01-6.95-.05-13.9.02-20.85.13-13.99-.02-27.98.06-41.97.01-1.4-.13-1.18 1.17-1.18 5.21-.01 10.41.02 15.62-.03.87-.01 1.26.18 1.14 1.09-.03.23.05.47.09.7-.23.29-.13.62-.13.94 0 23.15-.01 46.29.01 69.44 0 .74-.14 1.04-.96 1.03-5.06-.04-10.12-.02-15.18-.02-.41-.01-.84-.17-1.23.07M12.82 62.07c-.54-1.67-.55-3.39-.55-5.12 0-3.86-.03-7.72-.05-11.58.31-1.29.1-1.58-1.12-1.58-2.63 0-5.25-.02-7.88.02-.48.01-.97-.32-1.43.03-.55.02-.74-.22-.74-.79.03-4.38.03-8.75.02-13.13 0-.54.1-.77.72-.77 14.52.02 29.03.02 43.55.02.06 0 .12.01.18.02.05.12.11.24.16.36.01.29.01.58.02.88-.02.09-.05.17-.05.26.02 3.99 0 7.99.07 11.98.02.93-.3 1.14-1.17 1.13-4.41-.04-8.82.01-13.23-.04-.86-.01-1.09.21-1.09 1.07.02 10.57 0 21.13-.01 31.7 0 1.14-.02 1.18-1.16.91-3.64-.85-6.99-2.28-9.78-4.87-1.68-1.56-3.16-3.24-4.31-5.24-.44-.76-.65-1.69-1.41-2.26-.04-.04-.05-.09-.05-.15.12-.48-.05-.88-.31-1.26-.03-.1-.05-.21-.08-.31.07-.17.06-.32-.13-.4-.02-.1-.04-.2-.07-.29.08-.22.11-.42-.1-.59M61.12 51.96c-.01-1.54-.04-3.08-.04-4.61 0-7.28.02-14.57 0-21.85 0-.67.15-.9.87-.89 5.39.03 10.78.03 16.16 0 .68 0 .82.19.93.87.25 1.52.36 3.04.32 4.58 0 .13-.05.31.13.38.17.06.28-.06.38-.16.41-.42.84-.84 1.22-1.29 1.94-2.28 4.39-3.81 7.18-4.85 3.12-1.16 6.31-1.85 9.64-1.32 3.4.55 6.66 1.58 9.72 3.17.76.39 1.49.85 2.26 1.22.54.26.51.55.19.94-.16.52-.3 1.05-.5 1.55-1.78 4.41-3.58 8.81-5.37 13.22-.35.85-.44.91-1.14.27-2.1-1.92-4.7-2.87-7.37-3.45-4.62-.99-9.27-.72-13.85.45-3.36.85-6.63 1.89-9.76 3.42-2.46 1.2-4.63 2.8-6.8 4.43-1.52 1.16-2.81 2.57-4.17 3.92M118.45 53.01l-.42-1.34c.11-.18.07-.32-.1-.44-.56-2.1-.83-4.24-.83-6.41 0-5.95.01-11.9 0-17.85 0-.68.15-.9.88-.89 5.21.03 10.42.02 15.63.01 1.34 0 1.34 0 1.44 1.33-.2.16-.12.38-.12.58 0 13.26.01 26.52.01 39.78 0 .53.04 1.06.05 1.6.01.22.16.49-.11.64-.22.12-.37-.11-.55-.19-2.71-1.13-4.91-3.06-7.21-4.78-2.6-1.95-4.48-4.6-6.23-7.32-.79-1.23-1.21-2.68-2.07-3.88-.05-.14-.11-.29-.16-.43.05-.2-.04-.33-.21-.41M61.59 75.51a22.4 22.4 0 0 1 4.21-9.56c2.51-3.31 5.39-6.3 8.97-8.54 1.3-.81 2.58-1.65 3.96-2.32.25-.12.62-.5.58.21-.21.18-.17.43-.18.66-.06 1.6-.17 3.19-.17 4.79-.01 11.75 0 23.49 0 35.24 0 .21-.01.42 0 .62.04.48-.15.7-.66.69a2963 2963 0 0 0-16.33-.02c-.69 0-.81-.28-.81-.9.02-5.3.02-10.59.01-15.89 0-.35-.05-.7-.07-1.05l.03-1.03c.21-.28.23-.59.15-.92.07-.52.14-1.05.22-1.57.14-.11.19-.24.09-.41M120.29 88.89c-2.26-4.6-2.92-9.53-3.13-14.82.94 1 1.75 1.79 2.56 2.57 3.79 3.65 8.37 5.81 13.32 7.43 5.32 1.74 10.73 2.13 16.24 1.63 1.62-.15 3.23-.43 4.76-.99 1.2-.44 2.33-1.07 3.65-1.69l-.23 1.77c-.06.1-.15.19-.17.3-.28 2.14-1.07 4.12-2 6.03-1.8 3.69-4.42 6.65-8.32 8.19-5.43 2.13-10.82 1.81-16.19-.45-4.11-1.73-7.07-4.67-9.55-8.24-.37-.55-.38-1.29-.94-1.73M15.97 97.82l-.21-.33c.08-.27-.01-.42-.31-.4-2.29-3.68-3.12-7.74-3.18-12.01-.03-1.71 0-3.41 0-5.38.79.74 1.4 1.27 1.97 1.84 3.46 3.37 7.56 5.58 12.21 6.82 4.37 1.16 8.79 1.5 13.28.9 1.49-.2 2.96-.55 4.41-.98.43-.13.6-.08.76.37 1.12 3.18 1.95 6.44 2.91 9.67.05.16 0 .34-.01.52-.31-.1-.4.19-.57.33-2.09 1.67-4.37 2.97-7.01 3.59-4.24 1-8.54 1.17-12.85.71-4.15-.44-7.8-1.98-10.65-5.16-.19-.22-.34-.59-.75-.49M21.69 22.01h-7.72c-.63 0-.83-.3-1.17-.86-.97-1.56-.43-3.18-.49-4.75-.11-2.66-.01-5.33-.03-7.99 0-.53.15-.75.69-.91 5.4-1.53 10.82-2.97 16.25-4.39.69-.18 1.15-.22 1.01.71-.03.18-.03.43.07.53.84.8.52 1.82.52 2.76.02 4.47.01 8.94.02 13.4 0 1.21-.26 1.49-1.51 1.49-2.55.01-5.09.01-7.64.01"/><path d="M234.96 89.38c-.16-.57-.79-.87-.84-1.52 2.03-.25 4.05-.61 6.01-1.33 3.24-1.19 5.66-3.33 7.47-6.2.35-.56.56-.64 1.13-.28 2.23 1.39 4.57 2.62 6.75 4.08 2.28 1.53 4.64 2.89 6.98 4.32.39.24.85.44.31.97-.17 0-.26.13-.33.25-.88 1.43-2.11 2.53-3.37 3.6-1.15.98-2.39 1.83-3.64 2.66-1.06.71-2.11 1.62-3.48 1.65-1.3.03-2.61 0-3.89-.19-5.36-.79-9.74-3.24-12.82-7.81-.07-.08-.19-.13-.28-.2M232.67 126.98c.3-.07.28-.37.36-.57.81-2.12 1.61-4.24 2.39-6.38.25-.68.66-.98 1.39-.96 2.45.05 2.27-.35 2.27 2.19 0 2.63-.04 5.27.02 7.9.02.83-.35.92-1 .92-.62 0-.95-.1-.93-.88.06-2.57.03-5.15.02-7.72 0-.27.1-.57-.12-.84-.34.18-.32.5-.41.76-.94 2.61-1.9 5.21-2.79 7.83-.22.65-.54.88-1.21.86-.65-.02-1.09-.13-1.33-.85-.84-2.61-1.76-5.19-2.64-7.79-.09-.27-.19-.54-.29-.81-.41.13-.25.42-.25.62-.01 2.63-.04 5.27.01 7.9.02.78-.28.95-.97.93-.63-.02-.95-.11-.94-.88.05-3.02.04-6.04.01-9.06-.01-.79.24-1.1 1.07-1.09 2.61.03 2.32-.1 3.12 2.17.59 1.67 1.2 3.33 1.82 4.98.1.26.12.59.4.77M252.19 121.41c.02.44.07.88.07 1.33.01 2.19-.03 4.38.02 6.57.02.79-.44.75-.96.76-.53.01-.87-.05-.86-.76.04-3.11.03-6.21.01-9.32-.01-.7.26-.87.93-.94 1.35-.14 2.18.3 2.77 1.59.97 2.12 2.22 4.1 3.18 6.22.04.09.12.17.36.22-.02-.38-.05-.77-.05-1.15-.01-2.04.03-4.08-.02-6.12-.02-.76.38-.78.93-.79.58-.01.91.06.89.8-.05 2.93-.01 5.86-.03 8.79 0 .52.24 1.18-.54 1.42-.86.27-1.93 0-2.32-.65-.47-.79-.88-1.6-1.3-2.41-.92-1.78-1.95-3.5-2.74-5.36-.04-.1-.07-.23-.34-.2M204.24 124.91c-.01-1.65.17-3.12 1.18-4.32 1.65-1.97 3.84-2.04 6.08-1.45 2.29.6 2.88 2.5 3.08 4.57.11 1.1-.02 2.19-.37 3.24-.62 1.84-1.89 2.93-3.84 3.21-.86.13-1.71.09-2.56-.06-2-.37-3.23-1.77-3.49-3.92-.05-.48-.06-.95-.08-1.27m2.13-.31c.04.47.04 1.04.14 1.59.31 1.66 1.21 2.38 2.88 2.37 1.57-.01 2.61-.87 2.9-2.43.19-1.02.21-2.05.03-3.08-.26-1.56-1.17-2.48-2.58-2.57-1.7-.1-2.7.59-3.17 2.19-.16.6-.13 1.22-.2 1.93M158.51 124.53c0-1.51.02-3.02-.01-4.53-.01-.66.16-.98.9-.94 1.44.09 2.9-.13 4.34.15 2.14.41 3.5 1.85 3.79 4.01.11.85.11 1.72-.02 2.57-.38 2.47-2.06 4-4.56 4.15-1.18.07-2.37.02-3.55.07-.73.03-.91-.29-.9-.96.04-1.51.01-3.01.01-4.52m2.04.02v2.3c0 1.84 0 1.84 1.84 1.62 1.62-.19 2.56-.99 2.93-2.5.48-1.97-.06-4.06-1.27-4.85-.32-.21-.67-.38-1.06-.42-.61-.06-1.23-.07-1.85-.13-.48-.05-.61.17-.6.62.03 1.12.01 2.24.01 3.36M45.35 124.94c.88.44 1.3 1.06 1.6 1.78.38.89.78 1.78 1.16 2.68.19.43.06.64-.44.68-1.41.12-1.48.09-2.01-1.22-.3-.74-.61-1.47-.92-2.2-.38-.91-1.06-1.27-2.04-1.22-.44.02-.55.18-.54.58.02 1.09-.04 2.19.02 3.28.05.87-.5.77-1.03.77-.54 0-1.01.05-1-.8.05-3.1.03-6.21.01-9.31 0-.63.15-.92.84-.89 1.27.05 2.54-.03 3.81.05 1.52.09 2.61 1.02 2.81 2.26.25 1.59-.33 2.65-1.82 3.35-.11.04-.21.09-.45.21m-3.19-2.67c0 1.74 0 1.74 1.56 1.66 1.18-.06 1.85-.74 1.79-1.83-.06-1.17-.75-1.56-2.57-1.58-1.42-.01-.55 1.04-.78 1.57-.02.05 0 .12 0 .18M68.16 124.91c1.68 1.2 1.92 3.12 2.71 4.72.04.08.01.25-.05.32-.31.37-2 .06-2.2-.4-.4-.95-.78-1.91-1.18-2.86-.17-.41-.4-.78-.81-1.02-.52-.31-1.13-.34-1.62-.15-.33.13-.13.69-.13 1.06-.02.95-.03 1.89 0 2.84.03.87-.61.62-1.05.64s-.97.15-.96-.64c.02-3.19.02-6.38 0-9.58 0-.57.19-.79.77-.77 1.06.03 2.13 0 3.19.01 1.93.02 3.11.76 3.43 2.16.38 1.65-.2 2.69-2.1 3.67m-3.29-2.63c0 .41.01.83 0 1.24 0 .23.03.42.32.41.62-.02 1.26.03 1.85-.09.87-.18 1.36-1.12 1.16-2.01-.23-1.03-1.12-1.46-2.84-1.29-.96.09-.3.88-.48 1.31-.06.12-.01.29-.01.43M37.48 123.24c-.07 1.1.12 2.43-.11 3.76-.27 1.55-1.16 2.54-2.67 2.99-1.17.35-2.34.34-3.5.02-1.57-.44-2.45-1.51-2.59-3.12-.21-2.42-.05-4.85-.09-7.28-.01-.84.69-.6 1.11-.61.39-.01.98-.14.96.66q-.06 3.195 0 6.39c.03 1.88 1.37 2.9 3.14 2.46 1.09-.27 1.69-1.09 1.71-2.47.03-2.04 0-4.08.02-6.13 0-.29-.19-.7.26-.84.55-.16 1.12-.18 1.65.07.2.1.11.38.11.57.01 1.11 0 2.2 0 3.53M135.57 130.07c-.75.23-1.03-.29-1.26-1.03-.49-1.59-.52-1.58-2.2-1.58h-.27c-.77.01-1.64-.22-2.28.08-.66.31-.55 1.34-.87 2.02-.2.43-1.6.73-1.93.4-.16-.16-.06-.33-.01-.49 1.16-3.34 2.31-6.68 3.47-10.02.1-.29.31-.39.6-.43.56-.08 1.12-.05 1.68 0 .41.04.62.21.75.6 1.1 3.2 2.21 6.41 3.35 9.59.41 1.08-.32.84-1.03.86m-3.87-9.13c-.07.01-.14.01-.21.02-.38 1.17-.76 2.33-1.15 3.5-.5 1.51-.5 1.51 1.09 1.51 1.91 0 1.91 0 1.32-1.81-.35-1.08-.7-2.15-1.05-3.22M85.27 118.97c1.04-.15 1.52.29 1.84 1.29.94 2.95 2.01 5.86 3.02 8.79.11.32.45.72-.04 1-.44.25-1.78-.03-1.95-.35-.04-.08-.05-.17-.08-.25-.23-.64-.28-1.57-.73-1.84-.55-.33-1.43-.13-2.16-.13-.71 0-1.57-.21-2.08.12-.45.3-.51 1.2-.74 1.84-.2.54-1.48.93-1.92.57-.21-.17-.12-.39-.05-.57 1.15-3.32 2.31-6.63 3.47-9.94.25-.77.94-.4 1.42-.53m.03 2.02-.23-.03c-.51 1.52-1.01 3.05-1.52 4.57-.1.31.01.44.33.44.88-.01 1.77 0 2.65 0 .26 0 .38-.09.28-.38-.5-1.54-1-3.07-1.51-4.6M8.16 123.15c0-1.12.05-2.25-.02-3.37-.05-.86.53-.81 1.02-.8.48.01 1.07-.1 1.04.78-.06 2.04-.04 4.08-.01 6.12.03 2.03 1.33 3.09 3.17 2.62 1.1-.28 1.71-1.16 1.72-2.57.02-2.04.05-4.08-.02-6.12-.03-.92.54-.83 1.07-.84.54-.01.99.04.97.85-.07 2.07-.01 4.14-.03 6.21-.02 2.39-1.26 3.78-3.63 4.14-.84.13-1.66.07-2.47-.12-1.65-.38-2.69-1.61-2.78-3.35-.07-1.18-.01-2.37-.01-3.55zM216.78 124.68c0-1.54.03-3.07-.01-4.61-.02-.79.28-1.05 1.04-1.01.97.05 1.95-.01 2.92.02 2.08.06 3.39 1.21 3.49 3.02.11 2.12-1.07 3.63-3.12 3.93-.49.07-1 .14-1.5.11-.6-.04-.84.11-.8.76.06.82-.01 1.65.02 2.48.03.84-.57.67-1.04.67-.46 0-1.04.16-1.02-.68.05-1.56.02-3.13.02-4.69m2.04-2.13v.89c0 1.21 0 1.19 1.24 1.18.78 0 1.4-.29 1.75-.98.4-.78.41-1.59-.08-2.36-.39-.61-1.72-1.03-2.58-.73-.68.24-.19.92-.32 1.38-.05.19-.01.41-.01.62M182.47 128.1c.88-2.84 1.72-5.57 2.57-8.29.1-.32.1-.72.58-.78.5-.07 1.09-.23 1.45.12.29.29-.07.77-.2 1.15-.99 2.97-2.02 5.92-2.99 8.89-.22.69-.56.91-1.26.9-1.67-.03-1.67 0-2.19-1.56-.97-2.88-1.92-5.77-2.92-8.64-.23-.66-.09-.87.61-.92.88-.06 1.39.13 1.66 1.09.71 2.5 1.55 4.96 2.33 7.43.05.19.09.4.36.61M169.7 124.51c0-1.54.02-3.08-.01-4.61-.01-.6.19-.85.82-.83 1.63.03 3.25.04 4.88 0 .6-.01.68.26.67.75-.01.46-.03.8-.65.78-1-.04-2.01.01-3.02-.02-.49-.02-.66.12-.67.64-.07 2.34-.09 2.34 2.22 2.34.24 0 .48.03.71-.01.67-.1.81.28.81.83s-.23.78-.82.74c-.77-.05-1.54.01-2.31-.02-.44-.02-.65.09-.61.58.07.91-.36 2.08.16 2.66.49.55 1.67.12 2.55.17.27.02.53.02.8 0 .55-.05.87.05.86.74-.01.65-.23.79-.83.78-1.57-.03-3.14-.03-4.7 0-.65.01-.89-.23-.88-.88.05-1.56.02-3.1.02-4.64M53.4 119.08c.83 0 1.66.03 2.48-.01.57-.03.62.27.61.71-.01.43.05.83-.61.81-1.03-.04-2.07.01-3.11-.02-.46-.01-.6.14-.62.6-.12 2.37-.13 2.37 2.19 2.37.24 0 .48.03.71-.01.63-.09.84.21.85.79.01.63-.28.85-.87.77-.15-.02-.3-.01-.44 0-.79.06-2.02-.34-2.26.15-.39.79-.13 1.89-.15 2.86-.01.48.35.38.63.38 1.04 0 2.07.03 3.11-.01.66-.03.6.37.61.8s-.02.73-.6.72c-1.69-.03-3.37-.02-5.06-.01-.53 0-.74-.22-.73-.75.01-3.14.01-6.27 0-9.41 0-.56.2-.8.78-.78.83.06 1.66.04 2.48.04M188.89 124.51c0-1.54.01-3.08-.01-4.61-.01-.6.19-.85.82-.83 1.63.03 3.25.04 4.88 0 .6-.01.68.25.67.74-.01.46-.02.8-.65.78-1-.04-2.01.01-3.02-.02-.49-.02-.66.12-.67.64-.07 2.34-.09 2.34 2.22 2.34.24 0 .48.03.71-.01.67-.1.81.28.81.83s-.23.78-.81.74c-.77-.05-1.54.01-2.31-.02-.44-.02-.65.08-.61.58.07.91-.36 2.08.16 2.66.49.55 1.67.12 2.55.17.27.02.53.02.8 0 .55-.05.87.05.86.74-.01.64-.23.79-.83.78-1.57-.04-3.14-.03-4.7 0-.65.01-.9-.22-.88-.88.03-1.55.01-3.09.01-4.63M115.25 118.85c.63-.02 1.23.12 1.82.34.66.25.99 1.01.72 1.66-.16.4-.41.19-.63.06-.58-.32-1.19-.54-1.85-.54-.67 0-1.33.12-1.58.87-.26.8.08 1.39.8 1.75.68.35 1.38.65 2.07.99 1.22.61 1.91 1.54 1.84 2.96-.08 1.45-.8 2.45-2.14 2.96-1.46.55-2.9.42-4.3-.23-.53-.25-.86-1.3-.56-1.75.2-.3.41-.08.6.03.75.45 1.57.68 2.44.68 1.01 0 1.65-.43 1.82-1.21.21-.91-.37-1.37-1.04-1.74-.59-.33-1.23-.56-1.82-.89-1.55-.85-2.13-2.03-1.79-3.57.29-1.34 1.39-2.18 3.08-2.33.16-.02.34-.03.52-.04M72.85 124.42c0-1.51.02-3.02-.01-4.53-.01-.61.18-.84.81-.83 1.63.03 3.26.04 4.88 0 .62-.02.65.3.65.76 0 .47-.04.79-.66.76-1-.05-2.01.01-3.02-.02-.49-.01-.66.14-.67.65-.07 2.33-.09 2.32 2.25 2.32.24 0 .48.02.71 0 .58-.07.79.18.79.75.01.6-.18.86-.82.82-.74-.05-1.48.02-2.22-.02-.52-.03-.76.1-.72.68.05.68.04 1.36 0 2.04-.03.54.13.73.69.71 1-.04 2.01.02 3.02-.02.58-.02.7.24.69.74-.01.46-.03.8-.65.78-1.66-.03-3.31-.02-4.97-.01-.56.01-.79-.21-.78-.79.05-1.59.03-3.19.03-4.79M103.59 124.51c0-1.54.02-3.08-.01-4.62-.01-.6.18-.85.81-.83 1.63.03 3.26.04 4.88 0 .62-.02.66.29.65.76 0 .46-.04.79-.66.77-1-.05-2.01.01-3.02-.02-.49-.01-.66.14-.67.65-.08 2.33-.09 2.33 2.25 2.33.24 0 .48.02.71 0 .58-.07.79.17.8.74.01.6-.18.86-.82.82-.74-.05-1.48.02-2.22-.02-.52-.03-.76.1-.72.68.05.68.04 1.36 0 2.04-.03.54.13.74.69.71.97-.05 1.95.02 2.93-.02.57-.02.8.14.79.74-.01.55-.12.8-.74.79-1.6-.04-3.2-.03-4.79 0-.65.01-.89-.22-.87-.88.03-1.56.01-3.1.01-4.64M241.8 124.53c0-1.51.03-3.02-.01-4.53-.02-.67.14-.97.89-.94 1.57.05 3.14.04 4.7 0 .59-.02.78.16.77.74-.01.53-.1.82-.74.79-.97-.05-1.95 0-2.93-.02-.47-.01-.68.1-.7.63-.09 2.35-.11 2.34 2.23 2.35.24 0 .48.03.71-.01.65-.09.81.23.81.82s-.24.77-.8.75c-.77-.04-1.54.02-2.31-.02-.52-.03-.71.17-.63.66v.09c.05.85-.36 1.94.15 2.49.52.55 1.62.12 2.47.17.29.02.59.03.89 0 .63-.07.9.11.9.81 0 .74-.4.71-.91.71-1.51-.01-3.02-.03-4.53.01-.71.02-1.01-.19-.98-.96.06-1.52.02-3.03.02-4.54M145.87 124.42c0-1.51.02-3.02-.01-4.53-.01-.61.18-.84.81-.83 1.63.03 3.25.04 4.88 0 .62-.02.66.3.65.76 0 .47-.04.79-.66.76-1-.05-2.01.01-3.02-.02-.49-.01-.66.14-.67.65-.08 2.33-.09 2.33 2.25 2.33.24 0 .48.02.71 0 .58-.07.79.18.79.75.01.6-.18.86-.82.82-.77-.05-1.54.01-2.31-.02-.44-.01-.65.09-.62.59.04.74.03 1.48 0 2.22-.02.46.13.63.6.61 1.03-.03 2.07.02 3.11-.02.58-.02.7.24.69.74-.01.46-.03.79-.65.78-1.66-.03-3.31-.02-4.97-.01-.56.01-.79-.21-.78-.79.04-1.59.02-3.19.02-4.79M.02 124.56c0-1.57.02-3.14-.01-4.71-.01-.57.18-.79.77-.78q2.31.045 4.62 0c.62-.01.66.31.65.78-.01.48-.01.89-.68.86-.92-.04-1.84.01-2.75-.02-.46-.02-.63.13-.6.6q.06 1.02 0 2.04c-.03.49.18.6.62.58.86-.03 1.72.02 2.58-.02.67-.03.6.41.61.82 0 .41.06.84-.61.81-.83-.04-1.66.02-2.49-.02-.53-.03-.73.13-.71.69.04 1.06-.02 2.13.02 3.2.03.85-.56.67-1.03.68-.48.01-1.02.13-.99-.71.03-1.6 0-3.2 0-4.8M124.36 125.35c0 1.3-.05 2.6.02 3.9.04.83-.44.83-1 .81-.54-.02-1.13.13-1.12-.79.04-2.54-.03-5.08.04-7.62.02-.85-.26-1.07-1.03-.97-.41.05-.83-.04-1.24.02-.68.09-.88-.22-.89-.84-.02-.67.27-.81.9-.8 2.25.04 4.49.04 6.74 0 .65-.01.74.31.73.79-.02.45-.01.9-.7.85-.62-.05-1.24.02-1.86-.02-.48-.03-.6.15-.59.6.02 1.36 0 2.71 0 4.07M23.83 125.33c0 1.3-.05 2.6.02 3.9.05.9-.48.83-1.06.84-.61.01-1.06-.02-1.04-.88.06-2.54-.01-5.08.04-7.62.02-.77-.22-.98-.94-.89-.47.06-.95-.03-1.42.02-.67.08-.79-.27-.81-.83-.02-.59.15-.82.79-.81 2.24.04 4.49.04 6.74 0 .61-.01.85.17.84.78-.01.63-.22.92-.9.85-.5-.05-1.01.03-1.5-.02-.6-.06-.82.11-.79.76.07 1.3.03 2.6.03 3.9M139.09 125.25c0-1.27-.04-2.54.02-3.81.03-.65-.2-.81-.8-.76-.56.05-1.12-.02-1.68.02-.68.05-.69-.38-.7-.85-.01-.44.02-.79.65-.78 2.36.03 4.73.03 7.09 0 .57-.01.64.28.61.71-.02.43.1.94-.62.91-.62-.02-1.24.03-1.86-.01-.55-.04-.7.14-.7.69.03 2.6-.02 5.2.03 7.8.02.82-.35.91-1 .91-.66 0-1.12-.04-1.07-.93.09-1.3.03-2.6.03-3.9M265.24 119.08c1.15 0 2.31.03 3.46-.01.61-.02.67.29.66.76-.01.46.02.94-.67.86a.5.5 0 0 0-.18 0c-.75.07-1.76-.34-2.19.18-.37.44-.12 1.41-.13 2.14-.01 2.1-.04 4.2.01 6.29.02.87-.52.76-1.04.77-.54.01-1.03.06-1.02-.79.05-2.54-.02-5.08.04-7.62.02-.86-.26-1.07-1.03-.98-.41.05-.83-.03-1.24.02-.63.07-.92-.14-.93-.81s.25-.85.89-.82c1.12.04 2.25.01 3.37.01M92.04 124.46c0-1.57.05-3.14-.02-4.7-.04-.89.55-.77 1.03-.78.51-.01 1.03-.04 1.01.81-.06 2.6 0 5.2-.03 7.81-.01.61.15.84.78.8.82-.05 1.66.02 2.48-.02.71-.04.64.44.65.88.02.45-.04.78-.66.77-1.48-.04-2.96-.03-4.44-.01-.62.01-.83-.23-.82-.84.04-1.58.02-3.15.02-4.72M197.57 124.44c0-1.57.04-3.14-.02-4.7-.03-.89.58-.76 1.05-.76.45 0 1-.09.99.74-.05 2.63 0 5.26-.03 7.89-.01.64.2.81.8.78.8-.05 1.6.03 2.39-.02.65-.04.73.31.72.81-.01.46.01.86-.68.84-1.48-.05-2.96-.03-4.43-.01-.63.01-.81-.27-.8-.86.03-1.57.01-3.14.01-4.71M219.94 99.74c-.07.08-.15.16-.16-.03.06-.02.12-.01.16.03"/><path d="M216.94 88.24c1.02 2.84 2.57 5.39 4.24 7.87.13.19.23.4.35.59-1.06.11-2.03-.3-3-.62-3.78-1.25-7.26-3.06-10.36-5.59-2.51-2.04-4.71-4.35-6.5-7.06-.58-.88-.9-1.93-1.64-2.71a44.9 44.9 0 0 1-4.1-16.2c-.47-7.46.75-14.68 3.51-21.63 1.7-4.28 4.15-8.04 7.47-11.27 2.52-2.45 5.42-4.25 8.59-5.7 7.63-3.49 15.61-4.27 23.84-3.2 3.23.42 6.45 1.05 9.45 2.31 3.55 1.49 6.97 3.27 9.77 5.98 2.94 2.84 5.37 6.07 6.91 9.9.14.35.34.67.51 1.01.06 1.01.59 1.85 1.01 2.73l.21.66c0 .14-.04.3 0 .43.7 2.33 1.13 4.7 1.51 7.1.72 4.55.77 9.12.75 13.71 0 .49-.18.71-.67.7-.41-.01-.83 0-1.24 0-17.63 0-35.27.01-52.9-.02-.86 0-1.08.25-1.13 1.09-.32 5.5.58 10.85 1.99 16.12.35 1.31.71 2.63 1.43 3.8m15.93-34.37c5.86.01 11.72 0 17.58.03.79 0 1.03-.21.95-1.01-.18-1.75-.65-3.42-1.18-5.08-.75-2.38-2.02-4.46-3.73-6.27-1.57-1.66-3.49-2.8-5.64-3.57-2.63-.94-5.3-1.68-8.12-1.56-2.49.11-4.9.73-7.24 1.57-3.02 1.09-5.56 2.8-7.44 5.46-1.92 2.72-3 5.74-3.56 8.99-.23 1.33-.2 1.43 1.15 1.43 5.74.01 11.48.01 17.23.01M168.11 96.32c-.53-.02-.56-.36-.56-.79 0-2.81-.04-5.62-.05-8.43-.01-6.95-.05-13.9.02-20.85.13-13.99-.02-27.98.06-41.97.01-1.4-.13-1.18 1.17-1.18 5.21-.01 10.41.02 15.62-.03.87-.01 1.26.18 1.14 1.09-.03.23.05.47.09.7-.23.29-.13.62-.13.94 0 23.15-.01 46.29.01 69.44 0 .74-.14 1.04-.96 1.03-5.06-.04-10.12-.02-15.18-.02-.42 0-.84-.16-1.23.07M14.54 59.05c-.54-1.67-.55-3.39-.55-5.12 0-3.86-.03-7.72-.05-11.58.31-1.29.1-1.58-1.12-1.58-2.63 0-5.25-.02-7.88.02-.48.01-.97-.32-1.43.03-.55.02-.74-.22-.74-.79.03-4.38.03-8.75.02-13.13 0-.54.1-.77.72-.77 14.52.02 29.03.02 43.55.02.06 0 .12.01.18.02.05.12.11.24.16.36.01.29.01.58.02.88-.02.09-.05.17-.05.26.02 3.99 0 7.99.07 11.98.02.93-.3 1.14-1.17 1.13-4.41-.04-8.82.01-13.23-.04-.86-.01-1.09.21-1.09 1.07.02 10.57 0 21.13-.01 31.7 0 1.14-.02 1.18-1.16.91-3.64-.85-6.99-2.28-9.78-4.87-1.68-1.56-3.16-3.24-4.31-5.24-.44-.76-.65-1.69-1.41-2.26-.04-.04-.05-.09-.05-.15.12-.48-.05-.88-.31-1.26-.03-.1-.05-.21-.08-.31.07-.17.06-.32-.13-.4-.02-.1-.04-.2-.07-.29.09-.21.12-.42-.1-.59M62.84 48.94c-.01-1.54-.04-3.08-.04-4.61 0-7.28.02-14.57 0-21.85 0-.67.15-.9.87-.89 5.39.03 10.78.03 16.16 0 .68 0 .82.19.93.87.25 1.52.36 3.04.32 4.58 0 .13-.05.31.13.38.17.06.28-.06.38-.16.41-.42.84-.84 1.22-1.29 1.94-2.28 4.39-3.81 7.18-4.85 3.12-1.16 6.31-1.85 9.64-1.32 3.4.55 6.66 1.58 9.72 3.17.76.39 1.49.85 2.26 1.22.54.26.51.55.19.94-.16.52-.3 1.05-.5 1.55-1.78 4.41-3.58 8.81-5.37 13.22-.35.85-.44.91-1.14.27-2.1-1.92-4.7-2.87-7.37-3.45-4.62-.99-9.27-.72-13.85.45-3.36.85-6.63 1.89-9.76 3.42-2.46 1.2-4.63 2.8-6.8 4.43-1.52 1.16-2.81 2.57-4.17 3.92M120.17 49.99l-.42-1.34c.11-.18.07-.32-.1-.44-.56-2.1-.83-4.24-.83-6.41 0-5.95.01-11.9 0-17.85 0-.68.15-.9.88-.89 5.21.03 10.42.02 15.63.01 1.34 0 1.34 0 1.44 1.33-.2.16-.12.38-.12.58 0 13.26.01 26.52.01 39.78 0 .53.04 1.06.05 1.6.01.22.16.49-.12.64-.22.12-.37-.11-.55-.19-2.71-1.13-4.91-3.06-7.21-4.78-2.6-1.95-4.48-4.6-6.23-7.32-.79-1.23-1.21-2.68-2.07-3.88-.05-.14-.11-.29-.16-.43.06-.19-.02-.32-.2-.41M63.31 72.5a22.4 22.4 0 0 1 4.21-9.56c2.51-3.31 5.39-6.3 8.97-8.54 1.3-.81 2.58-1.65 3.96-2.32.25-.12.62-.5.58.21-.21.18-.17.43-.18.66-.06 1.6-.17 3.19-.17 4.79-.01 11.75 0 23.49 0 35.24 0 .21-.01.42 0 .62.04.48-.15.7-.66.69a2963 2963 0 0 0-16.33-.02c-.69 0-.81-.28-.81-.9.02-5.3.02-10.59.01-15.89 0-.35-.05-.7-.07-1.05l.03-1.03c.21-.28.23-.59.15-.92.07-.52.14-1.05.22-1.57.14-.11.19-.25.09-.41M122.02 85.88c-2.26-4.6-2.92-9.53-3.13-14.82.94 1 1.75 1.79 2.56 2.57 3.79 3.65 8.37 5.81 13.32 7.43 5.32 1.74 10.73 2.13 16.24 1.63 1.62-.15 3.23-.43 4.76-.99 1.2-.44 2.33-1.07 3.65-1.69l-.23 1.77c-.06.1-.15.19-.17.3-.28 2.14-1.07 4.12-2 6.03-1.8 3.69-4.42 6.65-8.32 8.19-5.43 2.13-10.82 1.81-16.19-.45-4.11-1.73-7.07-4.67-9.55-8.24-.38-.55-.38-1.29-.94-1.73M17.69 94.8l-.21-.33c.08-.27-.01-.42-.31-.4-2.29-3.68-3.12-7.74-3.18-12.01-.03-1.71 0-3.41 0-5.38.79.74 1.4 1.27 1.97 1.84 3.46 3.37 7.56 5.58 12.21 6.82 4.37 1.16 8.79 1.5 13.28.9 1.49-.2 2.96-.55 4.41-.98.43-.13.6-.08.76.37 1.12 3.18 1.95 6.44 2.91 9.67.05.16 0 .34-.01.52-.31-.1-.4.19-.57.33-2.09 1.67-4.37 2.97-7.01 3.59-4.24 1-8.54 1.17-12.85.71-4.15-.44-7.8-1.98-10.65-5.16-.18-.21-.34-.58-.75-.49M23.42 19H15.7c-.63 0-.83-.3-1.17-.86-.97-1.56-.43-3.18-.49-4.75-.12-2.66-.02-5.33-.04-7.99 0-.53.15-.75.69-.91C20.09 2.96 25.51 1.52 30.94.1c.69-.18 1.15-.22 1.01.71-.03.17-.03.42.07.52.84.8.52 1.82.52 2.76.02 4.47.01 8.94.02 13.4 0 1.21-.26 1.49-1.51 1.49-2.54.02-5.09.02-7.63.02" class="st0"/><path d="M236.68 86.37c-.16-.57-.79-.87-.84-1.52 2.03-.25 4.05-.61 6.01-1.33 3.24-1.19 5.66-3.33 7.47-6.2.35-.56.56-.64 1.13-.28 2.23 1.39 4.57 2.62 6.75 4.08 2.28 1.53 4.64 2.89 6.98 4.32.39.24.85.44.31.97-.17 0-.26.13-.33.25-.88 1.43-2.11 2.53-3.37 3.6-1.15.98-2.39 1.83-3.64 2.66-1.06.71-2.11 1.62-3.48 1.65-1.3.03-2.61 0-3.89-.19-5.36-.79-9.74-3.24-12.82-7.81-.07-.08-.19-.13-.28-.2M234.39 123.96c.3-.07.28-.37.36-.57.81-2.12 1.61-4.24 2.39-6.38.25-.68.66-.98 1.39-.96 2.45.05 2.27-.35 2.27 2.19 0 2.63-.04 5.27.02 7.9.02.83-.35.92-1 .92-.62 0-.95-.1-.93-.88.06-2.57.03-5.15.02-7.72 0-.27.1-.57-.12-.84-.34.18-.32.5-.41.76-.94 2.61-1.9 5.21-2.79 7.83-.22.65-.54.88-1.21.86-.65-.02-1.09-.13-1.33-.85-.84-2.61-1.76-5.19-2.64-7.79-.09-.27-.19-.54-.29-.81-.41.13-.25.42-.25.62-.01 2.63-.04 5.27.01 7.9.02.78-.28.95-.97.93-.63-.02-.95-.11-.94-.88.05-3.02.04-6.04.01-9.06-.01-.79.24-1.1 1.07-1.09 2.61.03 2.32-.1 3.12 2.17.59 1.67 1.2 3.33 1.82 4.98.11.27.13.59.4.77M253.92 118.4c.02.44.07.88.07 1.33.01 2.19-.03 4.38.02 6.57.02.79-.44.75-.96.76-.53.01-.87-.05-.86-.76.04-3.11.03-6.21.01-9.32-.01-.7.26-.87.93-.94 1.35-.14 2.18.3 2.77 1.59.97 2.12 2.22 4.1 3.18 6.22.04.09.12.17.36.22-.02-.38-.05-.77-.05-1.15-.01-2.04.03-4.08-.02-6.12-.02-.76.38-.78.93-.79.58-.01.91.06.89.8-.05 2.93-.01 5.86-.03 8.79 0 .52.24 1.18-.54 1.42-.86.27-1.93 0-2.32-.65-.47-.79-.88-1.6-1.3-2.41-.92-1.78-1.95-3.5-2.74-5.36-.04-.1-.08-.24-.34-.2M205.96 121.89c-.01-1.65.17-3.12 1.18-4.32 1.65-1.97 3.84-2.04 6.08-1.45 2.29.6 2.88 2.5 3.08 4.57.11 1.1-.02 2.19-.37 3.24-.62 1.84-1.89 2.93-3.84 3.21-.86.13-1.71.09-2.56-.06-2-.37-3.23-1.77-3.49-3.92-.05-.47-.06-.95-.08-1.27m2.13-.31c.04.47.04 1.04.14 1.59.31 1.66 1.21 2.38 2.88 2.37 1.57-.01 2.61-.87 2.9-2.43.19-1.02.21-2.05.03-3.08-.26-1.56-1.17-2.48-2.58-2.57-1.7-.1-2.7.59-3.17 2.19-.16.61-.13 1.23-.2 1.93M160.24 121.51c0-1.51.02-3.02-.01-4.53-.01-.66.16-.98.9-.94 1.44.09 2.9-.13 4.34.15 2.14.41 3.5 1.85 3.79 4.01.11.85.11 1.72-.02 2.57-.38 2.47-2.06 4-4.56 4.15-1.18.07-2.37.02-3.55.07-.73.03-.91-.29-.9-.96.03-1.5.01-3.01.01-4.52m2.03.02v2.3c0 1.84 0 1.84 1.84 1.62 1.62-.19 2.56-.99 2.93-2.5.48-1.97-.06-4.06-1.27-4.85-.32-.21-.67-.38-1.06-.42-.61-.06-1.23-.07-1.85-.13-.48-.05-.61.17-.6.62.03 1.12.01 2.24.01 3.36M47.07 121.93c.88.44 1.3 1.06 1.6 1.78.38.89.78 1.78 1.16 2.68.19.43.06.64-.44.68-1.41.12-1.48.09-2.01-1.22-.3-.74-.61-1.47-.92-2.2-.38-.91-1.06-1.27-2.04-1.22-.44.02-.55.18-.54.58.02 1.09-.04 2.19.02 3.28.05.87-.5.77-1.03.77-.54 0-1.01.05-1-.8.05-3.1.03-6.21.01-9.31 0-.63.15-.92.84-.89 1.27.05 2.54-.03 3.81.05 1.52.09 2.61 1.02 2.81 2.26.25 1.59-.33 2.65-1.82 3.35-.11.04-.21.09-.45.21m-3.19-2.68c0 1.74 0 1.74 1.56 1.66 1.18-.06 1.85-.74 1.79-1.83-.06-1.17-.75-1.56-2.57-1.58-1.42-.01-.55 1.04-.78 1.57-.01.06 0 .13 0 .18M69.88 121.89c1.68 1.2 1.92 3.12 2.71 4.72.04.08.01.25-.05.32-.31.37-2 .06-2.2-.4-.4-.95-.78-1.91-1.18-2.86-.17-.41-.4-.78-.81-1.02-.52-.31-1.13-.34-1.62-.15-.33.13-.13.69-.13 1.06-.02.95-.03 1.89 0 2.84.03.87-.61.62-1.05.64s-.97.15-.96-.64c.02-3.19.02-6.38 0-9.58 0-.57.19-.79.77-.77 1.06.03 2.13 0 3.19.01 1.93.02 3.11.76 3.43 2.16.38 1.66-.2 2.7-2.1 3.67m-3.29-2.62c0 .41.01.83 0 1.24 0 .23.03.42.32.41.62-.02 1.26.03 1.85-.09.87-.18 1.36-1.12 1.16-2.01-.23-1.03-1.12-1.46-2.84-1.29-.96.09-.3.88-.48 1.31-.05.11-.01.28-.01.43M39.21 120.22c-.07 1.1.12 2.43-.11 3.76-.27 1.55-1.16 2.54-2.67 2.99-1.17.35-2.34.34-3.5.02-1.57-.44-2.45-1.51-2.59-3.12-.21-2.42-.05-4.85-.09-7.28-.01-.84.69-.6 1.11-.61.39-.01.98-.14.96.66q-.06 3.195 0 6.39c.03 1.88 1.37 2.9 3.14 2.46 1.09-.27 1.69-1.09 1.71-2.47.03-2.04 0-4.08.02-6.13 0-.29-.19-.7.26-.84.55-.16 1.12-.18 1.65.07.2.1.11.38.11.57zM137.3 127.06c-.75.23-1.03-.29-1.26-1.03-.49-1.59-.52-1.58-2.2-1.58h-.27c-.77.01-1.64-.22-2.28.08-.66.31-.55 1.34-.87 2.02-.2.43-1.6.73-1.93.4-.16-.16-.06-.33-.01-.49 1.16-3.34 2.31-6.68 3.47-10.02.1-.29.31-.39.6-.43.56-.08 1.12-.05 1.68 0 .41.04.62.21.75.6 1.1 3.2 2.21 6.41 3.35 9.59.4 1.07-.33.84-1.03.86m-3.88-9.14c-.07.01-.14.01-.21.02-.38 1.17-.76 2.33-1.15 3.5-.5 1.51-.5 1.51 1.09 1.51 1.91 0 1.91 0 1.32-1.81-.35-1.07-.7-2.15-1.05-3.22M86.99 115.95c1.04-.15 1.52.29 1.84 1.29.94 2.95 2.01 5.86 3.02 8.79.11.32.45.72-.04 1-.44.25-1.78-.03-1.95-.35-.04-.08-.05-.17-.08-.25-.23-.64-.28-1.57-.73-1.84-.55-.33-1.43-.13-2.16-.13-.71 0-1.57-.21-2.08.12-.45.3-.51 1.2-.74 1.84-.2.54-1.48.93-1.92.57-.21-.17-.12-.39-.05-.57 1.15-3.32 2.31-6.63 3.47-9.94.26-.76.95-.39 1.42-.53m.04 2.02-.23-.03c-.51 1.52-1.01 3.05-1.52 4.57-.1.31.01.44.33.44.88-.01 1.77 0 2.65 0 .26 0 .38-.09.28-.38-.51-1.53-1.01-3.07-1.51-4.6M9.88 120.14c0-1.12.05-2.25-.02-3.37-.05-.86.53-.81 1.02-.8.48.01 1.07-.1 1.04.78-.06 2.04-.04 4.08-.01 6.12.03 2.03 1.33 3.09 3.17 2.62 1.1-.28 1.71-1.16 1.72-2.57.02-2.04.05-4.08-.02-6.12-.03-.92.54-.83 1.07-.84.54-.01.99.04.97.85-.07 2.07-.01 4.14-.03 6.21-.02 2.39-1.26 3.78-3.63 4.14-.84.13-1.66.07-2.47-.12-1.65-.38-2.69-1.61-2.78-3.35-.07-1.18-.01-2.37-.01-3.55zM218.51 121.66c0-1.54.03-3.07-.01-4.61-.02-.79.28-1.05 1.04-1.01.97.05 1.95-.01 2.92.02 2.08.06 3.39 1.21 3.49 3.02.11 2.12-1.07 3.63-3.12 3.93-.49.07-1 .14-1.5.11-.6-.04-.84.11-.8.76.06.82-.01 1.65.02 2.48.03.84-.57.67-1.04.67-.46 0-1.04.16-1.02-.68.04-1.55.02-3.12.02-4.69m2.04-2.13v.89c0 1.21 0 1.19 1.24 1.18.78 0 1.4-.29 1.75-.98.4-.78.41-1.59-.08-2.36-.39-.61-1.72-1.03-2.58-.73-.68.24-.19.92-.32 1.38-.06.2-.01.42-.01.62M184.19 125.09c.88-2.84 1.72-5.57 2.57-8.29.1-.32.1-.72.58-.78.5-.07 1.09-.23 1.45.12.29.29-.07.77-.2 1.15-.99 2.97-2.02 5.92-2.99 8.89-.22.69-.56.91-1.26.9-1.67-.03-1.67 0-2.19-1.56-.97-2.88-1.92-5.77-2.92-8.64-.23-.66-.09-.87.61-.92.88-.06 1.39.13 1.66 1.09.71 2.5 1.55 4.96 2.33 7.43.06.19.09.39.36.61M171.43 121.5c0-1.54.02-3.08-.01-4.61-.01-.6.19-.85.82-.83 1.63.03 3.25.04 4.88 0 .6-.01.68.26.67.75-.01.46-.03.8-.65.78-1-.04-2.01.01-3.02-.02-.49-.02-.66.12-.67.64-.07 2.34-.09 2.34 2.22 2.34.24 0 .48.03.71-.01.67-.1.81.28.81.83s-.23.78-.82.74c-.77-.05-1.54.01-2.31-.02-.44-.02-.65.09-.61.58.07.91-.36 2.08.16 2.66.49.55 1.67.12 2.55.17.27.02.53.02.8 0 .55-.05.87.05.86.74-.01.65-.23.79-.83.78-1.57-.03-3.14-.03-4.7 0-.65.01-.89-.23-.88-.88.04-1.57.02-3.1.02-4.64M55.13 116.06c.83 0 1.66.03 2.48-.01.57-.03.62.27.61.71-.01.43.05.83-.61.81-1.03-.04-2.07.01-3.11-.02-.46-.01-.6.14-.62.6-.12 2.37-.13 2.37 2.19 2.37.24 0 .48.03.71-.01.63-.09.84.21.85.79.01.63-.28.85-.87.77-.15-.02-.3-.01-.44 0-.79.06-2.02-.34-2.26.15-.39.79-.13 1.89-.15 2.86-.01.48.35.38.63.38 1.04 0 2.07.03 3.11-.01.66-.03.6.37.61.8s-.02.73-.6.72c-1.69-.03-3.37-.02-5.06-.01-.53 0-.74-.22-.73-.75.01-3.14.01-6.27 0-9.41 0-.56.2-.8.78-.78.82.07 1.65.04 2.48.04M190.61 121.5c0-1.54.01-3.08-.01-4.61-.01-.6.19-.85.82-.83 1.63.03 3.25.04 4.88 0 .6-.01.68.25.67.74-.01.46-.02.8-.65.78-1-.04-2.01.01-3.02-.02-.49-.02-.66.12-.67.64-.07 2.34-.09 2.34 2.22 2.34.24 0 .48.03.71-.01.67-.1.81.28.81.83s-.23.78-.81.74c-.77-.05-1.54.01-2.31-.02-.44-.02-.65.08-.61.58.07.91-.36 2.08.16 2.66.49.55 1.67.12 2.55.17.27.02.53.02.8 0 .55-.05.87.05.86.74-.01.64-.23.79-.83.78-1.57-.04-3.14-.03-4.7 0-.65.01-.9-.22-.88-.88.04-1.55.01-3.09.01-4.63M116.97 115.83c.63-.02 1.23.12 1.82.34.66.25.99 1.01.72 1.66-.16.4-.41.19-.63.06-.58-.32-1.19-.54-1.85-.54-.67 0-1.33.12-1.58.87-.26.8.08 1.39.8 1.75.68.35 1.38.65 2.07.99 1.22.61 1.91 1.54 1.84 2.96-.08 1.45-.8 2.45-2.14 2.96-1.46.55-2.9.42-4.3-.23-.53-.25-.86-1.3-.56-1.75.2-.3.41-.08.6.03.75.45 1.57.68 2.44.68 1.01 0 1.65-.43 1.82-1.21.21-.91-.37-1.37-1.04-1.74-.59-.33-1.23-.56-1.82-.89-1.55-.85-2.13-2.03-1.79-3.57.29-1.34 1.39-2.18 3.08-2.33.17-.02.34-.02.52-.04M74.57 121.41c0-1.51.02-3.02-.01-4.53-.01-.61.18-.84.81-.83 1.63.03 3.26.04 4.88 0 .62-.02.65.3.65.76 0 .47-.04.79-.66.76-1-.05-2.01.01-3.02-.02-.49-.01-.66.14-.67.65-.07 2.33-.09 2.32 2.25 2.32.24 0 .48.02.71 0 .58-.07.79.18.79.75.01.6-.18.86-.82.82-.74-.05-1.48.02-2.22-.02-.52-.03-.76.1-.72.68.05.68.04 1.36 0 2.04-.03.54.13.73.69.71 1-.04 2.01.02 3.02-.02.58-.02.7.24.69.74-.01.46-.03.8-.65.78-1.66-.03-3.31-.02-4.97-.01-.56.01-.79-.21-.78-.79.05-1.6.03-3.19.03-4.79M105.31 121.5c0-1.54.02-3.08-.01-4.62-.01-.6.18-.85.81-.83 1.63.03 3.26.04 4.88 0 .62-.02.66.29.65.76 0 .46-.04.79-.66.77-1-.05-2.01.01-3.02-.02-.49-.01-.66.14-.67.65-.08 2.33-.09 2.33 2.25 2.33.24 0 .48.02.71 0 .58-.07.79.17.8.74.01.6-.18.86-.82.82-.74-.05-1.48.02-2.22-.02-.52-.03-.76.1-.72.68.05.68.04 1.36 0 2.04-.03.54.13.74.69.71.97-.05 1.95.02 2.93-.02.57-.02.8.14.79.74-.01.55-.12.8-.74.79-1.6-.04-3.2-.03-4.79 0-.65.01-.89-.22-.87-.88.04-1.56.01-3.1.01-4.64M243.52 121.52c0-1.51.03-3.02-.01-4.53-.02-.67.14-.97.89-.94 1.57.05 3.14.04 4.7 0 .59-.02.78.16.77.74-.01.53-.1.82-.74.79-.97-.05-1.95 0-2.93-.02-.47-.01-.68.1-.7.63-.09 2.35-.11 2.34 2.23 2.35.24 0 .48.03.71-.01.65-.09.81.23.81.82s-.24.77-.8.75c-.77-.04-1.54.02-2.31-.02-.52-.03-.71.17-.63.66v.09c.05.85-.36 1.94.15 2.49.52.55 1.62.12 2.47.17.29.02.59.03.89 0 .63-.07.9.11.9.81 0 .74-.4.71-.91.71-1.51-.01-3.02-.03-4.53.01-.71.02-1.01-.19-.98-.96.06-1.53.03-3.04.02-4.54M147.59 121.41c0-1.51.02-3.02-.01-4.53-.01-.61.18-.84.81-.83 1.63.03 3.25.04 4.88 0 .62-.02.66.3.65.76 0 .47-.04.79-.66.76-1-.05-2.01.01-3.02-.02-.49-.01-.66.14-.67.65-.08 2.33-.09 2.33 2.25 2.33.24 0 .48.02.71 0 .58-.07.79.18.79.75.01.6-.18.86-.82.82-.77-.05-1.54.01-2.31-.02-.44-.01-.65.09-.62.59.04.74.03 1.48 0 2.22-.02.46.13.63.6.61 1.03-.03 2.07.02 3.11-.02.58-.02.7.24.69.74-.01.46-.03.79-.65.78-1.66-.03-3.31-.02-4.97-.01-.56.01-.79-.21-.78-.79.04-1.6.02-3.19.02-4.79M1.74 121.54c0-1.57.02-3.14-.01-4.71-.01-.57.18-.79.77-.78q2.31.045 4.62 0c.62-.01.66.31.65.78-.01.48-.01.89-.68.86-.92-.04-1.84.01-2.75-.02-.46-.02-.63.13-.6.6q.06 1.02 0 2.04c-.03.49.18.6.62.58.86-.03 1.72.02 2.58-.02.67-.03.6.41.61.82 0 .41.06.84-.61.81-.83-.04-1.66.02-2.49-.02-.53-.03-.73.13-.71.69.04 1.06-.02 2.13.02 3.2.03.85-.56.67-1.03.68-.48.01-1.02.13-.99-.71.03-1.6 0-3.2 0-4.8M126.08 122.34c0 1.3-.05 2.6.02 3.9.04.83-.44.83-1 .81-.54-.02-1.13.13-1.12-.79.04-2.54-.03-5.08.04-7.62.02-.85-.26-1.07-1.03-.97-.41.05-.83-.04-1.24.02-.68.09-.88-.22-.89-.84-.02-.67.27-.81.9-.8 2.25.04 4.49.04 6.74 0 .65-.01.74.31.73.79-.02.45-.01.9-.7.85-.62-.05-1.24.02-1.86-.02-.48-.03-.6.15-.59.6.02 1.35 0 2.71 0 4.07M25.55 122.32c0 1.3-.05 2.6.02 3.9.05.9-.48.83-1.06.84-.61.01-1.06-.02-1.04-.88.06-2.54-.01-5.08.04-7.62.02-.77-.22-.98-.94-.89-.47.06-.95-.03-1.42.02-.67.08-.79-.27-.81-.83-.02-.59.15-.82.79-.81 2.24.04 4.49.04 6.74 0 .61-.01.85.17.84.78-.01.63-.22.92-.9.85-.5-.05-1.01.03-1.5-.02-.6-.06-.82.11-.79.76.07 1.3.03 2.6.03 3.9M140.81 122.23c0-1.27-.04-2.54.02-3.81.03-.65-.2-.81-.8-.76-.56.05-1.12-.02-1.68.02-.68.05-.69-.38-.7-.85-.01-.44.02-.79.65-.78 2.36.03 4.73.03 7.09 0 .57-.01.64.28.61.71-.02.43.1.94-.62.91-.62-.02-1.24.03-1.86-.01-.55-.04-.7.14-.7.69.03 2.6-.02 5.2.03 7.8.02.82-.35.91-1 .91-.66 0-1.12-.04-1.07-.93.09-1.29.03-2.6.03-3.9M266.96 116.06c1.15 0 2.31.03 3.46-.01.61-.02.67.29.66.76-.01.46.02.94-.67.86a.5.5 0 0 0-.18 0c-.75.07-1.76-.34-2.19.18-.37.44-.12 1.41-.13 2.14-.01 2.1-.04 4.2.01 6.29.02.87-.52.76-1.04.77-.54.01-1.03.06-1.02-.79.05-2.54-.02-5.08.04-7.62.02-.86-.26-1.07-1.03-.98-.41.05-.83-.03-1.24.02-.63.07-.92-.14-.93-.81s.25-.85.89-.82c1.12.05 2.25.01 3.37.01M93.76 121.45c0-1.57.05-3.14-.02-4.7-.04-.89.55-.77 1.03-.78.51-.01 1.03-.04 1.01.81-.06 2.6 0 5.2-.03 7.81-.01.61.15.84.78.8.82-.05 1.66.02 2.48-.02.71-.04.64.44.65.88.02.45-.04.78-.66.77-1.48-.04-2.96-.03-4.44-.01-.62.01-.83-.23-.82-.84.04-1.59.02-3.16.02-4.72M199.29 121.43c0-1.57.04-3.14-.02-4.7-.03-.89.58-.76 1.05-.76.45 0 1-.09.99.74-.05 2.63 0 5.26-.03 7.89-.01.64.2.81.8.78.8-.05 1.6.03 2.39-.02.65-.04.73.31.72.81-.01.46.01.86-.68.84-1.48-.05-2.96-.03-4.43-.01-.63.01-.81-.27-.8-.86.03-1.58.01-3.14.01-4.71M221.67 96.73c-.07.08-.15.16-.16-.03.05-.03.11-.02.16.03" class="st0"/></svg>