<svg id="Layer_1" data-name="Layer 1" xmlns="http://www.w3.org/2000/svg" viewBox="0 0 50.94 12.34"><defs><style>.cls-1{fill:#fefefe;}.cls-1,.cls-2,.cls-3{fill-rule:evenodd;}.cls-2{fill:#f39200;}.cls-3{fill:#348ccc;}</style></defs><title>شعار2</title><path class="cls-1" d="M23.57,5.31a3.42,3.42,0,0,1-1.19-.15V1.45c0-.2,0-.32,0-.5a4.9,4.9,0,0,1,.7,0,1.84,1.84,0,0,1,1.44.65,1.76,1.76,0,0,1,.21.3,3.16,3.16,0,0,1,0,2.83A1.21,1.21,0,0,1,23.57,5.31Zm-4-5c0,.3,0,.22.48.24.66,0,.78.36.78,1V7.68a8.17,8.17,0,0,1-.09,1.45,1.63,1.63,0,0,1-.1.29.33.33,0,0,1-.23.16c-.2.06-.55,0-.7.1l.1.19c.17,0,.24,0,.41,0h2.86c.22,0,.34,0,.56,0,0-.07,0,0,.06-.12s-.39-.12-.67-.15-.41-.09-.53-.32a20,20,0,0,1-.14-3.35l1.19,0c.22,0,.17.06.37.26l1.26,1.48c.14.16.24.32.38.46l1,1.15c.36.47,1,1.13,1.37,1.58l.59.67.23.2a2.08,2.08,0,0,0,1.39.31c.49,0,.87,0,1.36,0,.23,0,.12,0,.11-.22a2.6,2.6,0,0,1-1.25-.37,3.85,3.85,0,0,1-.65-.56l-1.36-1.5c-.19-.2-.55-.65-.76-.87l-.09-.1-.87-1-.19-.21a.59.59,0,0,1-.08-.11L25.11,5.65l-.19-.23c.1-.07.17-.17.28-.26a2.2,2.2,0,0,0,.27-.26l.13-.13a3.16,3.16,0,0,0,1-2,2.27,2.27,0,0,0-.28-1.34A2.89,2.89,0,0,0,23.63.26H19.8l-.27,0Z"/><path class="cls-1" d="M0,9.67a.44.44,0,0,0,.07.22l.7,0H3.3c.14,0,.35-.11.3-.21s-.59,0-.91-.14c-.54-.23-.43-1.62-.43-2.32V2.9c.08.07.09.11.21.23L3.94,4.76c.17.21.67.72.86.91s.6.59.9.9c.08.08.12.14.2.23L6.12,7,7.89,8.78l.46.44.45.44c.14.15.44.57.76.3.16-.15.07-.54.11-.94s0-6.26,0-7A2.52,2.52,0,0,1,9.83.75c.27-.4.92-.05.93-.47l-.51,0H7.56c-.16,0-.28.06-.29.22.5.11,1.22-.12,1.3.73.06.6,0,1.38,0,2V7.36a2.76,2.76,0,0,1-.44-.46L6.86,5.51a4.78,4.78,0,0,0-.45-.45L6,4.6l-.44-.45-3-3.09c-.17-.16-.88-1-1-1-.4,0-.31.65-.31,1.06v7A4.71,4.71,0,0,1,1.06,9.3c-.11.29-.44.33-.72.33L0,9.65Z"/><path class="cls-1" d="M12.22.49l.28,0c1,.09,1,.2,1,1.26,0,.87,0,1.68,0,2.57V8.17c0,.16,0,.25,0,.43a1.68,1.68,0,0,1-.14.78c-.14.22-.34.25-.63.26l-.2,0c-.11,0-.15,0-.12.08a.3.3,0,0,0,.3.17h5.49c.34,0,.35-.38.39-.68a7.06,7.06,0,0,0,.1-1.06c0-.17-.06-.23-.22-.24l-.14.6c-.31.86-1.36.7-2.25.68a1.32,1.32,0,0,1-.56-.15c-.33-.17-.36-.58-.36-1.06V5.36c0-.14,0-.15,0-.27l.49,0,.51,0a4.63,4.63,0,0,1,1.24.13c.32.16.38.67.38,1,.16-.08.2,0,.23-.42L18.2,4c-.39.11-.09.41-1.46.41h-1.5c-.05,0-.07,0-.07-.07V1h.53l.53,0c2.48,0,1.89.7,2.11,1.17a.34.34,0,0,0,.22-.37c0-.35.14-1.33.14-1.62-.68.16-4,.1-5,.1h-.84c-.33,0-.6-.06-.66.21Z"/><path class="cls-2" d="M28.07.51a2.87,2.87,0,0,1,.81.12c.51.17.64.52.85,1l3.53,8.47c.27,0,.27.08.51-.43l.58-1.31c.39-1,.89-2,1.31-3l.44-1c.23-.49.83-1.79,1-2.31l.14-.35c.14-.31.44-1,.81-1.1s.65,0,.68-.29l-.41,0H35.83a.28.28,0,0,0-.28.14c-.06.19.37.08.64.16s.24.14.24.33a4.47,4.47,0,0,1-.28.88L34.83,5.12c-.11.27-.22.57-.33.83s-.12.28-.17.41L34,7.18a2,2,0,0,1-.19.41c0-.09-1.43-3.82-1.57-4.17L31.6,1.76a2.53,2.53,0,0,1-.25-1c0-.21.43-.25.59-.26l.26,0a.28.28,0,0,0-.27-.22H28.3a.22.22,0,0,0-.22.24Z"/><path class="cls-1" d="M42.21,5c.13,0,.21-.11.34-.17l.33-.15c.1,0,.67-.23.71-.26C43.44,4,43,3,42.85,2.52l-1-2.35c-.11-.23-.29-.2-.4-.07s-1.12,2.73-1.16,2.83c-.51,1.27-1,2.53-1.51,3.79-.22.55-.54,1.38-.76,1.89s-.5,1-1.28,1l-.31,0a.48.48,0,0,0,.06.22l.83,0h1.74l.41,0h.22c.1,0,.13,0,.1-.08-.14-.48-1.41.42-.65-1.47l2.15-5.7a2.86,2.86,0,0,1,.24.56c.08.18.14.4.21.58L42.21,5Z"/><path class="cls-3" d="M43.59,4.41s-.61.21-.71.26l-.33.15a2.16,2.16,0,0,1-.34.17s-.6.4-.75.53L41,6c-.06.07-.13.11-.15.19L41.2,6l.4-.14a6.62,6.62,0,0,1,.88-.23,6.25,6.25,0,0,1,1.6-.09A7.7,7.7,0,0,1,46.13,6a3.55,3.55,0,0,0,3-.3A5.18,5.18,0,0,0,50.42,4.5a4,4,0,0,0,.52-.74,5.91,5.91,0,0,1-2.38,1,5.39,5.39,0,0,1-2.49-.16l-.46-.13a4.44,4.44,0,0,0-1.51-.12,1,1,0,0,0-.25,0,1.7,1.7,0,0,1-.26,0Z"/><path class="cls-1" d="M44.73,7.24A3.43,3.43,0,0,1,43,7.14c.12.42.27.78.41,1.18s.38.94.44,1.18a2.26,2.26,0,0,0-.29.25c-.07.07-.12.08,0,.11l.27,0c.59,0,1.55,0,2.18,0a2.18,2.18,0,0,0,1-.12c-.12-.17-.66-.14-1-.27-.7-.29-1.17-2-1.35-2.3Z"/><path class="cls-3" d="M43,7.14a3.43,3.43,0,0,0,1.69.1,3.66,3.66,0,0,0,.9-.3,4.93,4.93,0,0,0,.77-.44,9.17,9.17,0,0,1-1.57-.06l-.47-.08c-.29-.05-.58-.16-.87-.23L43,6a3.06,3.06,0,0,1-.47,0,3.27,3.27,0,0,1-.35,0,4,4,0,0,0-1.45.56,3.4,3.4,0,0,0-.46.33c.07,0,.39-.13.64-.18a2.67,2.67,0,0,1,.8,0,4.82,4.82,0,0,1,.7.14c.24.09.37.17.59.27Z"/><path class="cls-1" d="M42.48,5.66a3.18,3.18,0,0,1,.09.33A3.06,3.06,0,0,0,43,6l.46.1c.28.07.58.18.87.23,0-.11-.11-.28-.14-.39a1.4,1.4,0,0,1-.14-.39,5.81,5.81,0,0,0-1.6.09Z"/></svg>